# Exported from ProBuilder
# http://www.procore3d.com/probuilder
# 3/7/2019 4:21:01 PM

mtllib ./Icosphere.mtl
o Icosphere

g Icosphere
v -0.1425676 -2.963134 19.77354
v -0.1325404 -2.965347 19.77865
v -0.1455555 -2.958887 19.78015
v -0.1325404 -2.965347 19.77865
v -0.1272609 -2.970683 19.78795
v -0.1365585 -2.963324 19.78862
v -0.1325404 -2.965347 19.77865
v -0.1365585 -2.963324 19.78862
v -0.1455555 -2.958887 19.78015
v -0.1455555 -2.958887 19.78015
v -0.1365585 -2.963324 19.78862
v -0.1494036 -2.959692 19.7905
v -0.1425676 -2.963134 19.77354
v -0.1455555 -2.958887 19.78015
v -0.1556525 -2.960911 19.77646
v -0.1455555 -2.958887 19.78015
v -0.1494036 -2.959692 19.7905
v -0.1596706 -2.958887 19.78643
v -0.1455555 -2.958887 19.78015
v -0.1596706 -2.958887 19.78643
v -0.1556525 -2.960911 19.77646
v -0.1556525 -2.960911 19.77646
v -0.1596706 -2.958887 19.78643
v -0.1665816 -2.963134 19.78423
v -0.1425676 -2.963134 19.77354
v -0.1556525 -2.960911 19.77646
v -0.1488776 -2.968621 19.77269
v -0.1556525 -2.960911 19.77646
v -0.1665816 -2.963134 19.78423
v -0.1629926 -2.968621 19.77897
v -0.1556525 -2.960911 19.77646
v -0.1629926 -2.968621 19.77897
v -0.1488776 -2.968621 19.77269
v -0.1488776 -2.968621 19.77269
v -0.1629926 -2.968621 19.77897
v -0.1550554 -2.976252 19.7778
v -0.1425676 -2.963134 19.77354
v -0.1488776 -2.968621 19.77269
v -0.1345935 -2.971363 19.77404
v -0.1488776 -2.968621 19.77269
v -0.1550554 -2.976252 19.7778
v -0.1419337 -2.979074 19.77654
v -0.1488776 -2.968621 19.77269
v -0.1419337 -2.979074 19.77654
v -0.1345935 -2.971363 19.77404
v -0.1345935 -2.971363 19.77404
v -0.1419337 -2.979074 19.77654
v -0.1307539 -2.980917 19.7801
v -0.1425676 -2.963134 19.77354
v -0.1345935 -2.971363 19.77404
v -0.1325404 -2.965347 19.77865
v -0.1345935 -2.971363 19.77404
v -0.1307539 -2.980917 19.7801
v -0.1255964 -2.9758 19.78251
v -0.1345935 -2.971363 19.77404
v -0.1255964 -2.9758 19.78251
v -0.1325404 -2.965347 19.77865
v -0.1325404 -2.965347 19.77865
v -0.1255964 -2.9758 19.78251
v -0.1272609 -2.970683 19.78795
v -0.1665816 -2.963134 19.78423
v -0.1596706 -2.958887 19.78643
v -0.1694941 -2.965347 19.7951
v -0.1596706 -2.958887 19.78643
v -0.1494036 -2.959692 19.7905
v -0.1593971 -2.963324 19.79878
v -0.1596706 -2.958887 19.78643
v -0.1593971 -2.963324 19.79878
v -0.1694941 -2.965347 19.7951
v -0.1694941 -2.965347 19.7951
v -0.1593971 -2.963324 19.79878
v -0.1661163 -2.970683 19.80525
v -0.1494036 -2.959692 19.7905
v -0.1365585 -2.963324 19.78862
v -0.1451131 -2.966066 19.80013
v -0.1365585 -2.963324 19.78862
v -0.1272609 -2.970683 19.78795
v -0.1320979 -2.972526 19.79864
v -0.1365585 -2.963324 19.78862
v -0.1320979 -2.972526 19.79864
v -0.1451131 -2.966066 19.80013
v -0.1451131 -2.966066 19.80013
v -0.1320979 -2.972526 19.79864
v -0.1418148 -2.975348 19.80754
v -0.1272609 -2.970683 19.78795
v -0.1255964 -2.9758 19.78251
v -0.125323 -2.980237 19.79486
v -0.1255964 -2.9758 19.78251
v -0.1307539 -2.980917 19.7801
v -0.1273761 -2.986253 19.79025
v -0.1255964 -2.9758 19.78251
v -0.1273761 -2.986253 19.79025
v -0.125323 -2.980237 19.79486
v -0.125323 -2.980237 19.79486
v -0.1273761 -2.986253 19.79025
v -0.1302886 -2.988466 19.80112
v -0.1307539 -2.980917 19.7801
v -0.1419337 -2.979074 19.77654
v -0.1374731 -2.988276 19.78656
v -0.1419337 -2.979074 19.77654
v -0.1550554 -2.976252 19.7778
v -0.1517571 -2.985534 19.78521
v -0.1419337 -2.979074 19.77654
v -0.1517571 -2.985534 19.78521
v -0.1374731 -2.988276 19.78656
v -0.1374731 -2.988276 19.78656
v -0.1517571 -2.985534 19.78521
v -0.1474666 -2.991908 19.79485
v -0.1550554 -2.976252 19.7778
v -0.1629926 -2.968621 19.77897
v -0.1647723 -2.979074 19.78671
v -0.1629926 -2.968621 19.77897
v -0.1665816 -2.963134 19.78423
v -0.1715472 -2.971363 19.79049
v -0.1629926 -2.968621 19.77897
v -0.1715472 -2.971363 19.79049
v -0.1647723 -2.979074 19.78671
v -0.1647723 -2.979074 19.78671
v -0.1715472 -2.971363 19.79049
v -0.1696093 -2.980917 19.7974
v -0.1543026 -2.988466 19.81181
v -0.1622767 -2.980237 19.81131
v -0.1479926 -2.982979 19.81266
v -0.1622767 -2.980237 19.81131
v -0.1661163 -2.970683 19.80525
v -0.1549365 -2.972526 19.8088
v -0.1622767 -2.980237 19.81131
v -0.1549365 -2.972526 19.8088
v -0.1479926 -2.982979 19.81266
v -0.1479926 -2.982979 19.81266
v -0.1549365 -2.972526 19.8088
v -0.1418148 -2.975348 19.80754
v -0.1543026 -2.988466 19.81181
v -0.1479926 -2.982979 19.81266
v -0.1412177 -2.99069 19.80888
v -0.1479926 -2.982979 19.81266
v -0.1418148 -2.975348 19.80754
v -0.1338775 -2.982979 19.80638
v -0.1479926 -2.982979 19.81266
v -0.1338775 -2.982979 19.80638
v -0.1412177 -2.99069 19.80888
v -0.1412177 -2.99069 19.80888
v -0.1338775 -2.982979 19.80638
v -0.1302886 -2.988466 19.80112
v -0.1543026 -2.988466 19.81181
v -0.1412177 -2.99069 19.80888
v -0.1513146 -2.992713 19.8052
v -0.1412177 -2.99069 19.80888
v -0.1302886 -2.988466 19.80112
v -0.1371996 -2.992713 19.79891
v -0.1412177 -2.99069 19.80888
v -0.1371996 -2.992713 19.79891
v -0.1513146 -2.992713 19.8052
v -0.1513146 -2.992713 19.8052
v -0.1371996 -2.992713 19.79891
v -0.1474666 -2.991908 19.79485
v -0.1543026 -2.988466 19.81181
v -0.1513146 -2.992713 19.8052
v -0.1643298 -2.986253 19.8067
v -0.1513146 -2.992713 19.8052
v -0.1474666 -2.991908 19.79485
v -0.1603117 -2.988276 19.79673
v -0.1513146 -2.992713 19.8052
v -0.1603117 -2.988276 19.79673
v -0.1643298 -2.986253 19.8067
v -0.1643298 -2.986253 19.8067
v -0.1603117 -2.988276 19.79673
v -0.1696093 -2.980917 19.7974
v -0.1543026 -2.988466 19.81181
v -0.1643298 -2.986253 19.8067
v -0.1622767 -2.980237 19.81131
v -0.1643298 -2.986253 19.8067
v -0.1696093 -2.980917 19.7974
v -0.1712737 -2.9758 19.80284
v -0.1643298 -2.986253 19.8067
v -0.1712737 -2.9758 19.80284
v -0.1622767 -2.980237 19.81131
v -0.1622767 -2.980237 19.81131
v -0.1712737 -2.9758 19.80284
v -0.1661163 -2.970683 19.80525
v -0.1418148 -2.975348 19.80754
v -0.1549365 -2.972526 19.8088
v -0.1451131 -2.966066 19.80013
v -0.1549365 -2.972526 19.8088
v -0.1661163 -2.970683 19.80525
v -0.1593971 -2.963324 19.79878
v -0.1549365 -2.972526 19.8088
v -0.1593971 -2.963324 19.79878
v -0.1451131 -2.966066 19.80013
v -0.1451131 -2.966066 19.80013
v -0.1593971 -2.963324 19.79878
v -0.1494036 -2.959692 19.7905
v -0.1302886 -2.988466 19.80112
v -0.1338775 -2.982979 19.80638
v -0.125323 -2.980237 19.79486
v -0.1338775 -2.982979 19.80638
v -0.1418148 -2.975348 19.80754
v -0.1320979 -2.972526 19.79864
v -0.1338775 -2.982979 19.80638
v -0.1320979 -2.972526 19.79864
v -0.125323 -2.980237 19.79486
v -0.125323 -2.980237 19.79486
v -0.1320979 -2.972526 19.79864
v -0.1272609 -2.970683 19.78795
v -0.1474666 -2.991908 19.79485
v -0.1371996 -2.992713 19.79891
v -0.1374731 -2.988276 19.78656
v -0.1371996 -2.992713 19.79891
v -0.1302886 -2.988466 19.80112
v -0.1273761 -2.986253 19.79025
v -0.1371996 -2.992713 19.79891
v -0.1273761 -2.986253 19.79025
v -0.1374731 -2.988276 19.78656
v -0.1374731 -2.988276 19.78656
v -0.1273761 -2.986253 19.79025
v -0.1307539 -2.980917 19.7801
v -0.1696093 -2.980917 19.7974
v -0.1603117 -2.988276 19.79673
v -0.1647723 -2.979074 19.78671
v -0.1603117 -2.988276 19.79673
v -0.1474666 -2.991908 19.79485
v -0.1517571 -2.985534 19.78521
v -0.1603117 -2.988276 19.79673
v -0.1517571 -2.985534 19.78521
v -0.1647723 -2.979074 19.78671
v -0.1647723 -2.979074 19.78671
v -0.1517571 -2.985534 19.78521
v -0.1550554 -2.976252 19.7778
v -0.1661163 -2.970683 19.80525
v -0.1712737 -2.9758 19.80284
v -0.1694941 -2.965347 19.7951
v -0.1712737 -2.9758 19.80284
v -0.1696093 -2.980917 19.7974
v -0.1715472 -2.971363 19.79049
v -0.1712737 -2.9758 19.80284
v -0.1715472 -2.971363 19.79049
v -0.1694941 -2.965347 19.7951
v -0.1694941 -2.965347 19.7951
v -0.1715472 -2.971363 19.79049
v -0.1665816 -2.963134 19.78423

vn 0.0896035 0.1421608 -0.1571664
vn 0.0896035 0.1421608 -0.1571664
vn 0.0896035 0.1421608 -0.1571664
vn 0.1676422 0.1036762 -0.08370806
vn 0.1676422 0.1036762 -0.08370806
vn 0.1676422 0.1036762 -0.08370806
vn 0.1093691 0.1421625 -0.1092204
vn 0.1093691 0.1421625 -0.1092204
vn 0.1093691 0.1421625 -0.1092204
vn 0.05475131 0.1597097 -0.07069845
vn 0.05475131 0.1597097 -0.07069845
vn 0.05475131 0.1597097 -0.07069845
vn -0.0004129906 0.1594415 -0.1656748
vn -0.0004129906 0.1594415 -0.1656748
vn -0.0004129906 0.1594415 -0.1656748
vn -0.03526517 0.1769904 -0.07920686
vn -0.03526517 0.1769904 -0.07920686
vn -0.03526517 0.1769904 -0.07920686
vn -0.05556922 0.1738261 -0.1248105
vn -0.05556922 0.1738261 -0.1248105
vn -0.05556922 0.1738261 -0.1248105
vn -0.122844 0.1594415 -0.111165
vn -0.122844 0.1594415 -0.111165
vn -0.122844 0.1594415 -0.111165
vn -0.01335161 0.1215308 -0.1947354
vn -0.01335161 0.1215308 -0.1947354
vn -0.01335161 0.1215308 -0.1947354
vn -0.1357827 0.1215308 -0.1402256
vn -0.1357827 0.1215308 -0.1402256
vn -0.1357827 0.1215308 -0.1402256
vn -0.07927681 0.1043619 -0.1780586
vn -0.07927681 0.1043619 -0.1780586
vn -0.07927681 0.1043619 -0.1780586
vn -0.07701854 0.05465145 -0.1729865
vn -0.07701854 0.05465145 -0.1729865
vn -0.07701854 0.05465145 -0.1729865
vn 0.06866837 0.08082008 -0.2041875
vn 0.06866837 0.08082008 -0.2041875
vn 0.06866837 0.08082008 -0.2041875
vn 0.005001442 0.01394071 -0.1824385
vn 0.005001442 0.01394071 -0.1824385
vn 0.005001442 0.01394071 -0.1824385
vn 0.07100938 0.02976715 -0.1953777
vn 0.07100938 0.02976715 -0.1953777
vn 0.07100938 0.02976715 -0.1953777
vn 0.1288986 -0.009844122 -0.1707277
vn 0.1288986 -0.009844122 -0.1707277
vn 0.1288986 -0.009844122 -0.1707277
vn 0.1322981 0.09357011 -0.1809686
vn 0.1322981 0.09357011 -0.1809686
vn 0.1322981 0.09357011 -0.1809686
vn 0.1925283 0.002905899 -0.1475088
vn 0.1925283 0.002905899 -0.1475088
vn 0.1925283 0.002905899 -0.1475088
vn 0.187599 0.05312917 -0.1528334
vn 0.187599 0.05312917 -0.1528334
vn 0.187599 0.05312917 -0.1528334
vn 0.2103368 0.05508546 -0.1075102
vn 0.2103368 0.05508546 -0.1075102
vn 0.2103368 0.05508546 -0.1075102
vn -0.1767539 0.1421608 -0.03857648
vn -0.1767539 0.1421608 -0.03857648
vn -0.1767539 0.1421608 -0.03857648
vn -0.08917498 0.1597097 -0.006618344
vn -0.08917498 0.1597097 -0.006618344
vn -0.08917498 0.1597097 -0.006618344
vn -0.1543488 0.1421625 0.008194333
vn -0.1543488 0.1421625 0.008194333
vn -0.1543488 0.1421625 0.008194333
vn -0.1743818 0.1036762 0.06857075
vn -0.1743818 0.1036762 0.06857075
vn -0.1743818 0.1036762 0.06857075
vn 0.05647474 0.131749 0.007148555
vn 0.05647474 0.131749 0.007148555
vn 0.05647474 0.131749 0.007148555
vn 0.1693656 0.07571545 -0.005861098
vn 0.1693656 0.07571545 -0.005861098
vn 0.1693656 0.07571545 -0.005861098
vn 0.1125269 0.09092973 0.03341956
vn 0.1125269 0.09092973 0.03341956
vn 0.1125269 0.09092973 0.03341956
vn 0.09516507 0.05193065 0.09404847
vn 0.09516507 0.05193065 0.09404847
vn 0.09516507 0.05193065 0.09404847
vn 0.238447 -0.002905903 -0.04437378
vn 0.238447 -0.002905903 -0.04437378
vn 0.238447 -0.002905903 -0.04437378
vn 0.2206385 -0.05508547 -0.08437233
vn 0.2206385 -0.05508547 -0.08437233
vn 0.2206385 -0.05508547 -0.08437233
vn 0.2391056 -0.05312917 -0.03714769
vn 0.2391056 -0.05312917 -0.03714769
vn 0.2391056 -0.05312917 -0.03714769
vn 0.2230106 -0.09357011 0.02277495
vn 0.2230106 -0.09357011 0.02277495
vn 0.2230106 -0.09357011 0.02277495
vn 0.1176834 -0.07571545 -0.1219413
vn 0.1176834 -0.07571545 -0.1219413
vn 0.1176834 -0.07571545 -0.1219413
vn -0.006213751 -0.05193065 -0.1336521
vn -0.006213751 -0.05193065 -0.1336521
vn -0.006213751 -0.05193065 -0.1336521
vn 0.05045966 -0.09092973 -0.1059859
vn 0.05045966 -0.09092973 -0.1059859
vn 0.05045966 -0.09092973 -0.1059859
vn 0.03247659 -0.131749 -0.04675224
vn 0.03247659 -0.131749 -0.04675224
vn 0.03247659 -0.131749 -0.04675224
vn -0.1389248 0.01394071 -0.1183584
vn -0.1389248 0.01394071 -0.1183584
vn -0.1389248 0.01394071 -0.1183584
vn -0.197689 0.08082008 -0.08559755
vn -0.197689 0.08082008 -0.08559755
vn -0.197689 0.08082008 -0.08559755
vn -0.1927085 0.02976714 -0.07796296
vn -0.1927085 0.02976714 -0.07796296
vn -0.1927085 0.02976714 -0.07796296
vn -0.2131254 -0.009844079 -0.01844887
vn -0.2131254 -0.009844079 -0.01844887
vn -0.2131254 -0.009844079 -0.01844887
vn -0.06866838 -0.08082007 0.2041875
vn -0.06866838 -0.08082007 0.2041875
vn -0.06866838 -0.08082007 0.2041875
vn -0.1288986 0.009844079 0.1707277
vn -0.1288986 0.009844079 0.1707277
vn -0.1288986 0.009844079 0.1707277
vn -0.0710094 -0.02976716 0.1953778
vn -0.0710094 -0.02976716 0.1953778
vn -0.0710094 -0.02976716 0.1953778
vn -0.005001454 -0.01394073 0.1824385
vn -0.005001454 -0.01394073 0.1824385
vn -0.005001454 -0.01394073 0.1824385
vn 0.01335159 -0.1215308 0.1947355
vn 0.01335159 -0.1215308 0.1947355
vn 0.01335159 -0.1215308 0.1947355
vn 0.07701854 -0.05465147 0.1729865
vn 0.07701854 -0.05465147 0.1729865
vn 0.07701854 -0.05465147 0.1729865
vn 0.0792768 -0.1043619 0.1780586
vn 0.0792768 -0.1043619 0.1780586
vn 0.0792768 -0.1043619 0.1780586
vn 0.1357827 -0.1215308 0.1402256
vn 0.1357827 -0.1215308 0.1402256
vn 0.1357827 -0.1215308 0.1402256
vn 0.0004129574 -0.1594415 0.1656748
vn 0.0004129574 -0.1594415 0.1656748
vn 0.0004129574 -0.1594415 0.1656748
vn 0.122844 -0.1594415 0.111165
vn 0.122844 -0.1594415 0.111165
vn 0.122844 -0.1594415 0.111165
vn 0.0555692 -0.1738261 0.1248105
vn 0.0555692 -0.1738261 0.1248105
vn 0.0555692 -0.1738261 0.1248105
vn 0.03526518 -0.1769904 0.07920688
vn 0.03526518 -0.1769904 0.07920688
vn 0.03526518 -0.1769904 0.07920688
vn -0.08960351 -0.1421608 0.1571664
vn -0.08960351 -0.1421608 0.1571664
vn -0.08960351 -0.1421608 0.1571664
vn -0.05475132 -0.1597097 0.07069848
vn -0.05475132 -0.1597097 0.07069848
vn -0.05475132 -0.1597097 0.07069848
vn -0.1093691 -0.1421625 0.1092205
vn -0.1093691 -0.1421625 0.1092205
vn -0.1093691 -0.1421625 0.1092205
vn -0.1676422 -0.1036762 0.08370812
vn -0.1676422 -0.1036762 0.08370812
vn -0.1676422 -0.1036762 0.08370812
vn -0.1322982 -0.0935701 0.1809686
vn -0.1322982 -0.0935701 0.1809686
vn -0.1322982 -0.0935701 0.1809686
vn -0.2103368 -0.05508547 0.1075103
vn -0.2103368 -0.05508547 0.1075103
vn -0.2103368 -0.05508547 0.1075103
vn -0.187599 -0.05312917 0.1528334
vn -0.187599 -0.05312917 0.1528334
vn -0.187599 -0.05312917 0.1528334
vn -0.1925283 -0.002905953 0.1475088
vn -0.1925283 -0.002905953 0.1475088
vn -0.1925283 -0.002905953 0.1475088
vn 0.006213744 0.05193065 0.1336521
vn 0.006213744 0.05193065 0.1336521
vn 0.006213744 0.05193065 0.1336521
vn -0.1176834 0.07571545 0.1219413
vn -0.1176834 0.07571545 0.1219413
vn -0.1176834 0.07571545 0.1219413
vn -0.05045966 0.09092973 0.1059859
vn -0.05045966 0.09092973 0.1059859
vn -0.05045966 0.09092973 0.1059859
vn -0.03247658 0.131749 0.04675223
vn -0.03247658 0.131749 0.04675223
vn -0.03247658 0.131749 0.04675223
vn 0.197689 -0.08082007 0.08559757
vn 0.197689 -0.08082007 0.08559757
vn 0.197689 -0.08082007 0.08559757
vn 0.1389249 -0.01394073 0.1183584
vn 0.1389249 -0.01394073 0.1183584
vn 0.1389249 -0.01394073 0.1183584
vn 0.1927085 -0.02976716 0.07796298
vn 0.1927085 -0.02976716 0.07796298
vn 0.1927085 -0.02976716 0.07796298
vn 0.2131254 0.009844116 0.01844883
vn 0.2131254 0.009844116 0.01844883
vn 0.2131254 0.009844116 0.01844883
vn 0.08917501 -0.1597097 0.006618354
vn 0.08917501 -0.1597097 0.006618354
vn 0.08917501 -0.1597097 0.006618354
vn 0.1767538 -0.1421608 0.03857648
vn 0.1767538 -0.1421608 0.03857648
vn 0.1767538 -0.1421608 0.03857648
vn 0.1543488 -0.1421625 -0.008194302
vn 0.1543488 -0.1421625 -0.008194302
vn 0.1543488 -0.1421625 -0.008194302
vn 0.1743817 -0.1036761 -0.06857078
vn 0.1743817 -0.1036761 -0.06857078
vn 0.1743817 -0.1036761 -0.06857078
vn -0.1693656 -0.07571545 0.005861092
vn -0.1693656 -0.07571545 0.005861092
vn -0.1693656 -0.07571545 0.005861092
vn -0.05647475 -0.131749 -0.007148556
vn -0.05647475 -0.131749 -0.007148556
vn -0.05647475 -0.131749 -0.007148556
vn -0.1125269 -0.09092973 -0.03341956
vn -0.1125269 -0.09092973 -0.03341956
vn -0.1125269 -0.09092973 -0.03341956
vn -0.09516507 -0.05193065 -0.09404846
vn -0.09516507 -0.05193065 -0.09404846
vn -0.09516507 -0.05193065 -0.09404846
vn -0.2206385 0.05508546 0.08437229
vn -0.2206385 0.05508546 0.08437229
vn -0.2206385 0.05508546 0.08437229
vn -0.238447 0.002905952 0.04437378
vn -0.238447 0.002905952 0.04437378
vn -0.238447 0.002905952 0.04437378
vn -0.2391056 0.05312917 0.03714769
vn -0.2391056 0.05312917 0.03714769
vn -0.2391056 0.05312917 0.03714769
vn -0.2230106 0.09357011 -0.02277493
vn -0.2230106 0.09357011 -0.02277493
vn -0.2230106 0.09357011 -0.02277493

vt -0.05257311 0
vt -0.0809017 0.0309017
vt -0.0309017 0.05
vt -0.0309017 0.05
vt -0.05257311 0
vt -0.0809017 0.0309017
vt 0.0809017 0.05
vt 0.05 0.0309017
vt 0.0309017 0.0809017
vt 0.0309017 0.0809017
vt 0.05 0.0309017
vt 0 0.05257311
vt -0.05257311 0
vt -0.0309017 0.05
vt 0 0
vt -0.0309017 0.05
vt 0 0.08506508
vt 0.0309017 0.05
vt -0.0309017 0.05
vt 0.0309017 0.05
vt 0 0
vt 0 0
vt 0.0309017 0.05
vt 0.05257311 0
vt -0.05257311 0
vt 0 0
vt -0.0309017 -0.05
vt 0 0
vt 0.05257311 0
vt 0.0309017 -0.05
vt 0 0
vt 0.0309017 -0.05
vt -0.0309017 -0.05
vt -0.0309017 -0.05
vt 0.0309017 -0.05
vt 0 -0.08506508
vt -0.05257311 0
vt -0.0309017 -0.05
vt -0.0809017 -0.0309017
vt -0.0309017 0.0809017
vt 0 0.05257311
vt -0.05 0.0309017
vt -0.0309017 0.0809017
vt -0.05 0.0309017
vt -0.0809017 0.05
vt 0.0309017 0.05
vt 0.0809017 0.0309017
vt 0.05257311 0
vt 0 0.08506508
vt 0.0309017 0.05
vt -0.0309017 0.05
vt 0.0309017 0.05
vt 0.05257311 0
vt 0 0
vt 0.0309017 0.05
vt 0 0
vt -0.0309017 0.05
vt -0.0309017 0.05
vt 0 0
vt -0.05257311 0
vt 0.05257311 0
vt 0.0309017 0.05
vt 0.0809017 0.0309017
vt -0.0309017 0.0809017
vt 0 0.05257311
vt -0.05 0.0309017
vt -0.0309017 0.0809017
vt -0.05 0.0309017
vt -0.0809017 0.05
vt 0.0309017 0.05
vt 0.0809017 0.0309017
vt 0.05257311 0
vt 0 0.05257311
vt 0.05 0.0309017
vt 0 0
vt 0.05 0.0309017
vt 0.08506508 0
vt 0.05 -0.0309017
vt 0.05 0.0309017
vt 0.05 -0.0309017
vt 0 0
vt 0 0
vt 0.05 -0.0309017
vt 0 -0.05257311
vt -0.05257311 0
vt 0 0
vt -0.0309017 -0.05
vt 0 0
vt 0.05257311 0
vt 0.0309017 -0.05
vt 0 0
vt 0.0309017 -0.05
vt -0.0309017 -0.05
vt -0.0309017 -0.05
vt 0.0309017 -0.05
vt 0 -0.08506508
vt -0.08506508 0
vt -0.05 0.0309017
vt -0.05 -0.0309017
vt -0.05 0.0309017
vt 0 0.05257311
vt 0 0
vt -0.05 0.0309017
vt 0 0
vt -0.05 -0.0309017
vt -0.05 -0.0309017
vt 0 0
vt 0 -0.05257311
vt 0 0.05257311
vt 0.0309017 0.0809017
vt 0.05 0.0309017
vt 0.0309017 -0.05
vt 0.05257311 0
vt 0.0809017 -0.0309017
vt 0.0309017 0.0809017
vt 0.0809017 0.05
vt 0.05 0.0309017
vt -0.0809017 0.0309017
vt -0.0309017 0.05
vt -0.05257311 0
vt -0.05257311 0
vt -0.0809017 0.0309017
vt -0.0309017 0.05
vt 0.0309017 -0.05
vt 0.05257311 0
vt 0.0809017 -0.0309017
vt -0.0809017 -0.05
vt -0.05 -0.0309017
vt -0.0309017 -0.0809017
vt -0.0309017 -0.0809017
vt -0.05 -0.0309017
vt 0 -0.05257311
vt -0.05257311 0
vt -0.0309017 0.05
vt 0 0
vt -0.0309017 0.05
vt 0 0.08506508
vt 0.0309017 0.05
vt -0.0309017 0.05
vt 0.0309017 0.05
vt 0 0
vt 0 0
vt 0.0309017 0.05
vt 0.05257311 0
vt -0.05257311 0
vt 0 0
vt -0.0309017 -0.05
vt 0 0
vt 0.05257311 0
vt 0.0309017 -0.05
vt 0 0
vt 0.0309017 -0.05
vt -0.0309017 -0.05
vt -0.0309017 -0.05
vt 0.0309017 -0.05
vt 0 -0.08506508
vt -0.05257311 0
vt -0.0309017 -0.05
vt -0.0809017 -0.0309017
vt 0.0309017 -0.0809017
vt 0 -0.05257311
vt 0.05 -0.0309017
vt 0.0309017 -0.0809017
vt 0.05 -0.0309017
vt 0.0809017 -0.05
vt -0.0309017 -0.05
vt -0.0809017 -0.0309017
vt -0.05257311 0
vt 0 -0.08506508
vt -0.0309017 -0.05
vt 0.0309017 -0.05
vt -0.0309017 -0.05
vt -0.05257311 0
vt 0 0
vt -0.0309017 -0.05
vt 0 0
vt 0.0309017 -0.05
vt 0.0309017 -0.05
vt 0 0
vt 0.05257311 0
vt 0 -0.05257311
vt -0.05 -0.0309017
vt 0 0
vt -0.05 -0.0309017
vt -0.08506508 0
vt -0.05 0.0309017
vt -0.05 -0.0309017
vt -0.05 0.0309017
vt 0 0
vt 0 0
vt -0.05 0.0309017
vt 0 0.05257311
vt 0.05257311 0
vt 0.0309017 0.05
vt 0.0809017 0.0309017
vt 0.0309017 -0.0809017
vt 0 -0.05257311
vt 0.05 -0.0309017
vt 0.0309017 -0.0809017
vt 0.05 -0.0309017
vt 0.0809017 -0.05
vt -0.0309017 -0.05
vt -0.0809017 -0.0309017
vt -0.05257311 0
vt 0 -0.05257311
vt -0.0309017 -0.0809017
vt -0.05 -0.0309017
vt 0.0309017 -0.05
vt 0.05257311 0
vt 0.0809017 -0.0309017
vt -0.0309017 -0.0809017
vt -0.0809017 -0.05
vt -0.05 -0.0309017
vt 0.0809017 -0.0309017
vt 0.0309017 -0.05
vt 0.05257311 0
vt 0.08506508 0
vt 0.05 -0.0309017
vt 0.05 0.0309017
vt 0.05 -0.0309017
vt 0 -0.05257311
vt 0 0
vt 0.05 -0.0309017
vt 0 0
vt 0.05 0.0309017
vt 0.05 0.0309017
vt 0 0
vt 0 0.05257311
vt 0.05257311 0
vt 0 0
vt 0.0309017 0.05
vt 0 0
vt -0.05257311 0
vt -0.0309017 0.05
vt 0 0
vt -0.0309017 0.05
vt 0.0309017 0.05
vt 0.0309017 0.05
vt -0.0309017 0.05
vt 0 0.08506508

g Icosphere
usemtl OptionMaterial
f 3/3/3 2/2/2 1/1/1
f 6/6/6 5/5/5 4/4/4
f 9/9/9 8/8/8 7/7/7
f 12/12/12 11/11/11 10/10/10
f 15/15/15 14/14/14 13/13/13
f 18/18/18 17/17/17 16/16/16
f 21/21/21 20/20/20 19/19/19
f 24/24/24 23/23/23 22/22/22
f 27/27/27 26/26/26 25/25/25
f 30/30/30 29/29/29 28/28/28
f 33/33/33 32/32/32 31/31/31
f 36/36/36 35/35/35 34/34/34
f 39/39/39 38/38/38 37/37/37
f 42/42/42 41/41/41 40/40/40
f 45/45/45 44/44/44 43/43/43
f 48/48/48 47/47/47 46/46/46
f 51/51/51 50/50/50 49/49/49
f 54/54/54 53/53/53 52/52/52
f 57/57/57 56/56/56 55/55/55
f 60/60/60 59/59/59 58/58/58
f 63/63/63 62/62/62 61/61/61
f 66/66/66 65/65/65 64/64/64
f 69/69/69 68/68/68 67/67/67
f 72/72/72 71/71/71 70/70/70
f 75/75/75 74/74/74 73/73/73
f 78/78/78 77/77/77 76/76/76
f 81/81/81 80/80/80 79/79/79
f 84/84/84 83/83/83 82/82/82
f 87/87/87 86/86/86 85/85/85
f 90/90/90 89/89/89 88/88/88
f 93/93/93 92/92/92 91/91/91
f 96/96/96 95/95/95 94/94/94
f 99/99/99 98/98/98 97/97/97
f 102/102/102 101/101/101 100/100/100
f 105/105/105 104/104/104 103/103/103
f 108/108/108 107/107/107 106/106/106
f 111/111/111 110/110/110 109/109/109
f 114/114/114 113/113/113 112/112/112
f 117/117/117 116/116/116 115/115/115
f 120/120/120 119/119/119 118/118/118
f 123/123/123 122/122/122 121/121/121
f 126/126/126 125/125/125 124/124/124
f 129/129/129 128/128/128 127/127/127
f 132/132/132 131/131/131 130/130/130
f 135/135/135 134/134/134 133/133/133
f 138/138/138 137/137/137 136/136/136
f 141/141/141 140/140/140 139/139/139
f 144/144/144 143/143/143 142/142/142
f 147/147/147 146/146/146 145/145/145
f 150/150/150 149/149/149 148/148/148
f 153/153/153 152/152/152 151/151/151
f 156/156/156 155/155/155 154/154/154
f 159/159/159 158/158/158 157/157/157
f 162/162/162 161/161/161 160/160/160
f 165/165/165 164/164/164 163/163/163
f 168/168/168 167/167/167 166/166/166
f 171/171/171 170/170/170 169/169/169
f 174/174/174 173/173/173 172/172/172
f 177/177/177 176/176/176 175/175/175
f 180/180/180 179/179/179 178/178/178
f 183/183/183 182/182/182 181/181/181
f 186/186/186 185/185/185 184/184/184
f 189/189/189 188/188/188 187/187/187
f 192/192/192 191/191/191 190/190/190
f 195/195/195 194/194/194 193/193/193
f 198/198/198 197/197/197 196/196/196
f 201/201/201 200/200/200 199/199/199
f 204/204/204 203/203/203 202/202/202
f 207/207/207 206/206/206 205/205/205
f 210/210/210 209/209/209 208/208/208
f 213/213/213 212/212/212 211/211/211
f 216/216/216 215/215/215 214/214/214
f 219/219/219 218/218/218 217/217/217
f 222/222/222 221/221/221 220/220/220
f 225/225/225 224/224/224 223/223/223
f 228/228/228 227/227/227 226/226/226
f 231/231/231 230/230/230 229/229/229
f 234/234/234 233/233/233 232/232/232
f 237/237/237 236/236/236 235/235/235
f 240/240/240 239/239/239 238/238/238

