<svg xmlns="http://www.w3.org/2000/svg" viewBox="0 0 33.29 33.33"><defs><style>.cls-1{fill:#fff;}</style></defs><title>options</title><g id="Layer_2" data-name="Layer 2"><g id="Layer_1-2" data-name="Layer 1"><path class="cls-1" d="M32.85,20.71l-3.19-2.43a.8.8,0,0,1-.28-.3A4.59,4.59,0,0,1,29,16.87,1.78,1.78,0,0,1,29.71,15c1.07-.77,2.11-1.59,3.16-2.39a1,1,0,0,0,.41-.91A5.36,5.36,0,0,0,32,8.51,1.1,1.1,0,0,0,31,8.05l-3.29.43a3.59,3.59,0,0,1-1,.11,2.5,2.5,0,0,1-1.41-.79,1.69,1.69,0,0,1-.53-1.31c.18-1.4.38-2.78.57-4.17a1,1,0,0,0-.37-1A5.41,5.41,0,0,0,21.67,0a1.08,1.08,0,0,0-1,.45C19.71,1.71,18.76,3,17.83,4.21a.39.39,0,0,1-.38.19c-.53,0-1.05,0-1.58,0a.47.47,0,0,1-.45-.22L12.65.47A1.11,1.11,0,0,0,11.6,0a5.61,5.61,0,0,0-3,1.16A1.35,1.35,0,0,0,8,2.58c.21,1.34.39,2.69.58,4a.49.49,0,0,1,0,.32,4.41,4.41,0,0,1-.61,1,2.11,2.11,0,0,1-2,.67c-1.2-.22-2.43-.34-3.64-.5a1.1,1.1,0,0,0-1.07.45,5.55,5.55,0,0,0-1.24,3,1.23,1.23,0,0,0,.52,1.27c1,.75,2,1.56,3.07,2.29a1.63,1.63,0,0,1,.69,1.13.78.78,0,0,1,0,.21,2.06,2.06,0,0,1-.81,2c-1,.72-2,1.51-3,2.27A1.15,1.15,0,0,0,0,21.75a5.54,5.54,0,0,0,1.13,2.92,1.33,1.33,0,0,0,1.4.6c1.35-.22,2.71-.39,4.06-.58a.75.75,0,0,1,.3,0A2.67,2.67,0,0,1,8.54,26.3a1.1,1.1,0,0,1,.05.51c-.18,1.34-.37,2.69-.57,4a1.23,1.23,0,0,0,.52,1.27,5.53,5.53,0,0,0,2.85,1.19,1.26,1.26,0,0,0,1.34-.53c.9-1.23,1.82-2.44,2.74-3.66a.54.54,0,0,1,.3-.17c.32,0,.65,0,1,0h0a5.3,5.3,0,0,0,.69,0,.4.4,0,0,1,.41.2l2.86,3.81a1,1,0,0,0,.87.39A5.32,5.32,0,0,0,25,31.91a.9.9,0,0,0,.32-.82C25.15,30,25,29,24.88,27.9a3.47,3.47,0,0,1-.16-1.17,2.48,2.48,0,0,1,1.41-1.93,1.39,1.39,0,0,1,.64-.09c1.41.18,2.81.38,4.22.58a1,1,0,0,0,.92-.34,5.34,5.34,0,0,0,1.37-3.31A1,1,0,0,0,32.85,20.71ZM16.64,22A5.31,5.31,0,1,1,22,16.67,5.3,5.3,0,0,1,16.64,22Z"/></g></g></svg>