<?xml version="1.0" encoding="UTF-8" standalone="no"?>
<!DOCTYPE svg PUBLIC "-//W3C//DTD SVG 1.1//EN" "http://www.w3.org/Graphics/SVG/1.1/DTD/svg11.dtd">
<svg width="100%" height="100%" viewBox="0 0 1280 798" version="1.1" xmlns="http://www.w3.org/2000/svg" xmlns:xlink="http://www.w3.org/1999/xlink" xml:space="preserve" xmlns:serif="http://www.serif.com/" style="fill-rule:evenodd;clip-rule:evenodd;stroke-linejoin:round;stroke-miterlimit:1.41421;">
    <g transform="matrix(0.968908,0,0,1.04589,17.5524,-11.0374)">
        <path d="M1199.75,271.75C1199.75,208.426 1144.26,157.015 1075.9,157.015L208.944,157.015C140.589,157.015 85.093,208.426 85.093,271.75L85.093,501.22C85.093,564.544 140.589,615.955 208.944,615.955L1075.9,615.955C1144.26,615.955 1199.75,564.544 1199.75,501.22L1199.75,271.75Z" style="fill:white;fill-opacity:0;"/>
        <path d="M1076.3,157.015L1076.7,157.017L1077.1,157.02L1077.5,157.024L1077.9,157.029L1078.3,157.036L1078.7,157.043L1079.09,157.052L1079.49,157.062L1079.89,157.073L1080.29,157.085L1080.68,157.099L1081.08,157.113L1081.48,157.129L1081.87,157.146L1082.27,157.164L1082.66,157.183L1083.06,157.204L1083.45,157.225L1083.85,157.248L1084.24,157.271L1084.64,157.296L1085.03,157.322L1085.42,157.349L1085.82,157.378L1086.21,157.407L1086.6,157.438L1086.99,157.469L1087.38,157.502L1087.77,157.536L1088.16,157.571L1088.56,157.608L1088.94,157.645L1089.34,157.683L1089.72,157.723L1090.11,157.763L1090.5,157.805L1090.89,157.848L1091.28,157.892L1091.66,157.937L1092.05,157.983L1092.44,158.031L1092.83,158.079L1093.21,158.129L1093.6,158.179L1093.98,158.231L1094.37,158.284L1094.75,158.338L1095.13,158.393L1095.52,158.449L1095.9,158.506L1096.28,158.564L1096.67,158.624L1097.05,158.684L1097.43,158.745L1097.81,158.808L1098.19,158.872L1098.57,158.936L1098.95,159.002L1099.33,159.069L1099.71,159.137L1100.09,159.206L1100.47,159.276L1100.85,159.347L1101.22,159.42L1101.6,159.493L1101.98,159.567L1102.35,159.643L1102.73,159.719L1103.11,159.797L1103.48,159.875L1103.86,159.955L1104.23,160.036L1104.6,160.117L1104.98,160.2L1105.35,160.284L1105.72,160.369L1106.09,160.455L1106.46,160.541L1106.84,160.629L1107.21,160.718L1107.58,160.809L1107.95,160.9L1108.32,160.992L1108.68,161.085L1109.05,161.179L1109.42,161.274L1109.79,161.37L1110.16,161.468L1110.52,161.566L1110.89,161.665L1111.25,161.765L1111.62,161.867L1111.98,161.969L1112.35,162.072L1112.71,162.177L1113.08,162.282L1113.44,162.388L1113.8,162.496L1114.16,162.604L1114.52,162.713L1114.88,162.824L1115.25,162.935L1115.6,163.047L1115.96,163.161L1116.32,163.275L1116.68,163.39L1117.04,163.507L1117.4,163.624L1117.75,163.742L1118.11,163.861L1118.46,163.982L1118.82,164.103L1119.17,164.225L1119.53,164.348L1119.88,164.472L1120.24,164.597L1120.59,164.723L1120.94,164.85L1121.29,164.978L1121.64,165.107L1122,165.237L1122.35,165.368L1122.69,165.5L1123.04,165.633L1123.39,165.767L1123.74,165.901L1124.09,166.037L1124.44,166.174L1124.78,166.311L1125.13,166.45L1125.47,166.589L1125.82,166.73L1126.16,166.871L1126.51,167.013L1126.85,167.157L1127.19,167.301L1127.53,167.446L1127.88,167.592L1128.22,167.739L1128.56,167.887L1128.9,168.036L1129.24,168.185L1129.57,168.336L1129.91,168.488L1130.25,168.64L1130.59,168.794L1130.92,168.948L1131.26,169.103L1131.59,169.259L1131.93,169.417L1132.26,169.575L1132.6,169.733L1132.93,169.893L1133.26,170.054L1133.59,170.216L1133.92,170.378L1134.26,170.542L1134.59,170.706L1134.91,170.871L1135.24,171.037L1135.57,171.204L1135.9,171.372L1136.23,171.541L1136.55,171.711L1136.88,171.881L1137.2,172.053L1137.53,172.225L1137.85,172.398L1138.17,172.572L1138.5,172.747L1138.82,172.923L1139.14,173.1L1139.46,173.277L1139.78,173.456L1140.1,173.635L1140.42,173.815L1140.74,173.996L1141.06,174.178L1141.37,174.361L1141.69,174.545L1142,174.729L1142.32,174.915L1142.63,175.101L1142.95,175.288L1143.26,175.476L1143.57,175.664L1143.88,175.854L1144.2,176.044L1144.51,176.236L1144.82,176.428L1145.13,176.621L1145.43,176.815L1145.74,177.009L1146.05,177.205L1146.36,177.401L1146.66,177.598L1146.97,177.796L1147.27,177.995L1147.58,178.195L1147.88,178.395L1148.18,178.596L1148.48,178.798L1148.78,179.001L1149.09,179.205L1149.38,179.409L1149.68,179.615L1149.98,179.821L1150.28,180.028L1150.58,180.236L1150.87,180.444L1151.17,180.654L1151.46,180.864L1151.76,181.075L1152.05,181.287L1152.34,181.499L1152.64,181.713L1152.93,181.927L1153.22,182.142L1153.51,182.357L1153.8,182.574L1154.09,182.791L1154.37,183.009L1154.66,183.228L1154.95,183.448L1155.23,183.668L1155.52,183.89L1155.8,184.112L1156.09,184.334L1156.37,184.558L1156.65,184.782L1156.93,185.007L1157.21,185.233L1157.49,185.46L1157.77,185.687L1158.05,185.915L1158.33,186.144L1158.6,186.374L1158.88,186.604L1159.16,186.836L1159.43,187.068L1159.7,187.3L1159.98,187.534L1160.25,187.768L1160.52,188.003L1160.79,188.238L1161.06,188.475L1161.33,188.712L1161.6,188.95L1161.87,189.189L1162.13,189.428L1162.4,189.668L1162.67,189.909L1162.93,190.15L1163.19,190.393L1163.46,190.636L1163.72,190.879L1163.98,191.124L1164.24,191.369L1164.5,191.615L1164.76,191.862L1165.02,192.109L1165.28,192.357L1165.54,192.606L1165.79,192.855L1166.05,193.105L1166.3,193.356L1166.55,193.608L1166.81,193.86L1167.06,194.113L1167.31,194.367L1167.56,194.621L1167.81,194.876L1168.06,195.132L1168.31,195.389L1168.55,195.646L1168.8,195.904L1169.05,196.162L1169.29,196.422L1169.53,196.681L1169.78,196.942L1170.02,197.203L1170.26,197.465L1170.5,197.728L1170.74,197.991L1170.98,198.255L1171.22,198.52L1171.45,198.785L1171.69,199.051L1171.93,199.318L1172.16,199.585L1172.39,199.853L1172.63,200.122L1172.86,200.391L1173.09,200.661L1173.32,200.932L1173.55,201.203L1173.78,201.475L1174.01,201.748L1174.23,202.021L1174.46,202.295L1174.68,202.569L1174.91,202.844L1175.13,203.12L1175.36,203.397L1175.58,203.674L1175.8,203.951L1176.02,204.23L1176.24,204.509L1176.45,204.788L1176.67,205.069L1176.89,205.35L1177.1,205.631L1177.32,205.913L1177.53,206.196L1177.74,206.479L1177.96,206.763L1178.17,207.048L1178.38,207.333L1178.59,207.619L1178.8,207.905L1179,208.192L1179.21,208.48L1179.41,208.768L1179.62,209.057L1179.82,209.347L1180.03,209.637L1180.23,209.928L1180.43,210.219L1180.63,210.511L1180.83,210.803L1181.03,211.096L1181.22,211.39L1181.42,211.684L1181.62,211.979L1181.81,212.274L1182,212.57L1182.2,212.867L1182.39,213.164L1182.58,213.462L1182.77,213.76L1182.96,214.059L1183.14,214.358L1183.33,214.658L1183.52,214.959L1183.7,215.26L1183.89,215.562L1184.07,215.864L1184.25,216.167L1184.43,216.471L1184.61,216.775L1184.79,217.079L1184.97,217.384L1185.15,217.69L1185.33,217.996L1185.5,218.303L1185.67,218.61L1185.85,218.918L1186.02,219.226L1186.19,219.535L1186.36,219.845L1186.53,220.155L1186.7,220.465L1186.87,220.776L1187.04,221.088L1187.2,221.4L1187.37,221.713L1187.53,222.026L1187.69,222.34L1187.85,222.654L1188.01,222.969L1188.17,223.284L1188.33,223.6L1188.49,223.916L1188.65,224.233L1188.8,224.55L1188.96,224.868L1189.11,225.187L1189.26,225.506L1189.41,225.825L1189.57,226.145L1189.71,226.465L1189.86,226.786L1190.01,227.108L1190.16,227.43L1190.3,227.752L1190.45,228.075L1190.59,228.398L1190.73,228.722L1190.87,229.047L1191.02,229.371L1191.15,229.697L1191.29,230.023L1191.43,230.349L1191.57,230.676L1191.7,231.003L1191.83,231.331L1191.97,231.659L1192.1,231.988L1192.23,232.317L1192.36,232.647L1192.49,232.977L1192.62,233.307L1192.74,233.639L1192.87,233.97L1192.99,234.302L1193.12,234.634L1193.24,234.967L1193.36,235.301L1193.48,235.635L1193.6,235.969L1193.72,236.304L1193.83,236.639L1193.95,236.974L1194.07,237.31L1194.18,237.647L1194.29,237.984L1194.4,238.321L1194.51,238.659L1194.62,238.997L1194.73,239.336L1194.84,239.675L1194.94,240.015L1195.05,240.355L1195.15,240.695L1195.26,241.036L1195.36,241.377L1195.46,241.719L1195.56,242.061L1195.65,242.404L1195.75,242.747L1195.85,243.09L1195.94,243.434L1196.04,243.778L1196.13,244.123L1196.22,244.468L1196.31,244.813L1196.4,245.159L1196.49,245.505L1196.58,245.852L1196.66,246.199L1196.75,246.546L1196.83,246.894L1196.91,247.242L1197,247.591L1197.08,247.94L1197.15,248.289L1197.23,248.639L1197.31,248.989L1197.38,249.34L1197.46,249.691L1197.53,250.042L1197.61,250.394L1197.68,250.746L1197.75,251.098L1197.82,251.451L1197.88,251.804L1197.95,252.158L1198.01,252.512L1198.08,252.866L1198.14,253.221L1198.2,253.576L1198.26,253.931L1198.32,254.287L1198.38,254.643L1198.44,254.999L1198.49,255.356L1198.55,255.713L1198.6,256.071L1198.65,256.429L1198.7,256.787L1198.76,257.145L1198.8,257.504L1198.85,257.863L1198.9,258.223L1198.94,258.583L1198.99,258.943L1199.03,259.304L1199.07,259.665L1199.11,260.026L1199.15,260.387L1199.19,260.749L1199.22,261.112L1199.26,261.474L1199.29,261.837L1199.33,262.2L1199.36,262.564L1199.39,262.928L1199.42,263.292L1199.45,263.656L1199.47,264.021L1199.5,264.386L1199.52,264.751L1199.55,265.117L1199.57,265.483L1199.59,265.849L1199.61,266.216L1199.63,266.583L1199.64,266.95L1199.66,267.318L1199.67,267.685L1199.69,268.053L1199.7,268.422L1199.71,268.79L1199.72,269.159L1199.73,269.529L1199.74,269.898L1199.74,270.268L1199.75,270.638L1199.75,271.008L1199.75,271.379L1199.75,271.75L1199.75,501.22L1199.75,501.591L1199.75,501.962L1199.75,502.332L1199.74,502.702L1199.74,503.072L1199.73,503.442L1199.72,503.811L1199.71,504.18L1199.7,504.548L1199.69,504.917L1199.67,505.285L1199.66,505.653L1199.64,506.02L1199.63,506.387L1199.61,506.754L1199.59,507.121L1199.57,507.487L1199.55,507.853L1199.52,508.219L1199.5,508.584L1199.47,508.949L1199.45,509.314L1199.42,509.678L1199.39,510.043L1199.36,510.406L1199.33,510.77L1199.29,511.133L1199.26,511.496L1199.22,511.859L1199.19,512.221L1199.15,512.583L1199.11,512.944L1199.07,513.306L1199.03,513.666L1198.99,514.027L1198.94,514.387L1198.9,514.747L1198.85,515.107L1198.8,515.466L1198.76,515.825L1198.7,516.183L1198.65,516.542L1198.6,516.9L1198.55,517.257L1198.49,517.614L1198.44,517.971L1198.38,518.327L1198.32,518.684L1198.26,519.039L1198.2,519.395L1198.14,519.75L1198.08,520.104L1198.01,520.459L1197.95,520.813L1197.88,521.166L1197.82,521.519L1197.75,521.872L1197.68,522.225L1197.61,522.577L1197.53,522.928L1197.46,523.28L1197.38,523.631L1197.31,523.981L1197.23,524.331L1197.15,524.681L1197.08,525.03L1197,525.379L1196.91,525.728L1196.83,526.076L1196.75,526.424L1196.66,526.772L1196.58,527.119L1196.49,527.465L1196.4,527.811L1196.31,528.157L1196.22,528.503L1196.13,528.848L1196.04,529.192L1195.94,529.536L1195.85,529.88L1195.75,530.224L1195.65,530.567L1195.56,530.909L1195.46,531.251L1195.36,531.593L1195.26,531.934L1195.15,532.275L1195.05,532.615L1194.94,532.955L1194.84,533.295L1194.73,533.634L1194.62,533.973L1194.51,534.311L1194.4,534.649L1194.29,534.986L1194.18,535.323L1194.07,535.66L1193.95,535.996L1193.83,536.331L1193.72,536.667L1193.6,537.001L1193.48,537.336L1193.36,537.669L1193.24,538.003L1193.12,538.336L1192.99,538.668L1192.87,539L1192.74,539.332L1192.62,539.663L1192.49,539.993L1192.36,540.323L1192.23,540.653L1192.1,540.982L1191.97,541.311L1191.83,541.639L1191.7,541.967L1191.57,542.294L1191.43,542.621L1191.29,542.947L1191.15,543.273L1191.02,543.599L1190.87,543.924L1190.73,544.248L1190.59,544.572L1190.45,544.895L1190.3,545.218L1190.16,545.541L1190.01,545.863L1189.86,546.184L1189.71,546.505L1189.57,546.825L1189.41,547.145L1189.26,547.465L1189.11,547.784L1188.96,548.102L1188.8,548.42L1188.65,548.737L1188.49,549.054L1188.33,549.37L1188.17,549.686L1188.01,550.001L1187.85,550.316L1187.69,550.631L1187.53,550.944L1187.37,551.257L1187.2,551.57L1187.04,551.882L1186.87,552.194L1186.7,552.505L1186.53,552.816L1186.36,553.126L1186.19,553.435L1186.02,553.744L1185.85,554.052L1185.67,554.36L1185.5,554.667L1185.33,554.974L1185.15,555.28L1184.97,555.586L1184.79,555.891L1184.61,556.196L1184.43,556.5L1184.25,556.803L1184.07,557.106L1183.89,557.408L1183.7,557.71L1183.52,558.011L1183.33,558.312L1183.14,558.612L1182.96,558.911L1182.77,559.21L1182.58,559.508L1182.39,559.806L1182.2,560.103L1182,560.4L1181.81,560.696L1181.62,560.991L1181.42,561.286L1181.22,561.58L1181.03,561.874L1180.83,562.167L1180.63,562.459L1180.43,562.751L1180.23,563.043L1180.03,563.333L1179.82,563.623L1179.62,563.913L1179.41,564.202L1179.21,564.49L1179,564.778L1178.8,565.065L1178.59,565.351L1178.38,565.637L1178.17,565.922L1177.96,566.207L1177.74,566.491L1177.53,566.774L1177.32,567.057L1177.1,567.339L1176.89,567.621L1176.67,567.901L1176.45,568.182L1176.24,568.461L1176.02,568.74L1175.8,569.019L1175.58,569.296L1175.36,569.574L1175.13,569.85L1174.91,570.126L1174.68,570.401L1174.46,570.675L1174.23,570.949L1174.01,571.223L1173.78,571.495L1173.55,571.767L1173.32,572.038L1173.09,572.309L1172.86,572.579L1172.63,572.848L1172.39,573.117L1172.16,573.385L1171.93,573.652L1171.69,573.919L1171.45,574.185L1171.22,574.45L1170.98,574.715L1170.74,574.979L1170.5,575.242L1170.26,575.505L1170.02,575.767L1169.78,576.028L1169.53,576.289L1169.29,576.549L1169.05,576.808L1168.8,577.066L1168.55,577.324L1168.31,577.581L1168.06,577.838L1167.81,578.094L1167.56,578.349L1167.31,578.603L1167.06,578.857L1166.81,579.11L1166.55,579.362L1166.3,579.614L1166.05,579.865L1165.79,580.115L1165.54,580.364L1165.28,580.613L1165.02,580.861L1164.76,581.109L1164.5,581.355L1164.24,581.601L1163.98,581.846L1163.72,582.091L1163.46,582.334L1163.19,582.577L1162.93,582.82L1162.67,583.061L1162.4,583.302L1162.13,583.542L1161.87,583.782L1161.6,584.02L1161.33,584.258L1161.06,584.495L1160.79,584.732L1160.52,584.967L1160.25,585.202L1159.98,585.436L1159.7,585.67L1159.43,585.903L1159.16,586.135L1158.88,586.366L1158.6,586.596L1158.33,586.826L1158.05,587.055L1157.77,587.283L1157.49,587.51L1157.21,587.737L1156.93,587.963L1156.65,588.188L1156.37,588.412L1156.09,588.636L1155.8,588.858L1155.52,589.08L1155.23,589.302L1154.95,589.522L1154.66,589.742L1154.37,589.961L1154.09,590.179L1153.8,590.396L1153.51,590.613L1153.22,590.828L1152.93,591.043L1152.64,591.258L1152.34,591.471L1152.05,591.684L1151.76,591.895L1151.46,592.106L1151.17,592.317L1150.87,592.526L1150.58,592.734L1150.28,592.942L1149.98,593.149L1149.68,593.355L1149.38,593.561L1149.09,593.765L1148.78,593.969L1148.48,594.172L1148.18,594.374L1147.88,594.575L1147.58,594.776L1147.27,594.975L1146.97,595.174L1146.66,595.372L1146.36,595.569L1146.05,595.765L1145.74,595.961L1145.43,596.156L1145.13,596.349L1144.82,596.542L1144.51,596.734L1144.2,596.926L1143.88,597.116L1143.57,597.306L1143.26,597.494L1142.95,597.682L1142.63,597.869L1142.32,598.056L1142,598.241L1141.69,598.425L1141.37,598.609L1141.06,598.792L1140.74,598.974L1140.42,599.155L1140.1,599.335L1139.78,599.514L1139.46,599.693L1139.14,599.87L1138.82,600.047L1138.5,600.223L1138.17,600.398L1137.85,600.572L1137.53,600.745L1137.2,600.918L1136.88,601.089L1136.55,601.26L1136.23,601.429L1135.9,601.598L1135.57,601.766L1135.24,601.933L1134.91,602.099L1134.59,602.264L1134.26,602.429L1133.92,602.592L1133.59,602.755L1133.26,602.916L1132.93,603.077L1132.6,603.237L1132.26,603.396L1131.93,603.554L1131.59,603.711L1131.26,603.867L1130.92,604.022L1130.59,604.177L1130.25,604.33L1129.91,604.483L1129.57,604.634L1129.24,604.785L1128.9,604.935L1128.56,605.083L1128.22,605.231L1127.88,605.378L1127.53,605.524L1127.19,605.669L1126.85,605.814L1126.51,605.957L1126.16,606.099L1125.82,606.24L1125.47,606.381L1125.13,606.52L1124.78,606.659L1124.44,606.796L1124.09,606.933L1123.74,607.069L1123.39,607.203L1123.04,607.337L1122.69,607.47L1122.35,607.602L1122,607.733L1121.64,607.863L1121.29,607.992L1120.94,608.12L1120.59,608.247L1120.24,608.373L1119.88,608.498L1119.53,608.622L1119.17,608.745L1118.82,608.867L1118.46,608.989L1118.11,609.109L1117.75,609.228L1117.4,609.346L1117.04,609.464L1116.68,609.58L1116.32,609.695L1115.96,609.81L1115.6,609.923L1115.25,610.035L1114.88,610.147L1114.52,610.257L1114.16,610.366L1113.8,610.475L1113.44,610.582L1113.08,610.688L1112.71,610.794L1112.35,610.898L1111.98,611.001L1111.62,611.104L1111.25,611.205L1110.89,611.305L1110.52,611.404L1110.16,611.503L1109.79,611.6L1109.42,611.696L1109.05,611.791L1108.68,611.885L1108.32,611.978L1107.95,612.071L1107.58,612.162L1107.21,612.252L1106.84,612.341L1106.46,612.429L1106.09,612.516L1105.72,612.601L1105.35,612.686L1104.98,612.77L1104.6,612.853L1104.23,612.935L1103.86,613.015L1103.48,613.095L1103.11,613.174L1102.73,613.251L1102.35,613.327L1101.98,613.403L1101.6,613.477L1101.22,613.551L1100.85,613.623L1100.47,613.694L1100.09,613.764L1099.71,613.833L1099.33,613.901L1098.95,613.968L1098.57,614.034L1098.19,614.098L1097.81,614.162L1097.43,614.225L1097.05,614.286L1096.67,614.347L1096.28,614.406L1095.9,614.464L1095.52,614.521L1095.13,614.577L1094.75,614.632L1094.37,614.686L1093.98,614.739L1093.6,614.791L1093.21,614.842L1092.83,614.891L1092.44,614.939L1092.05,614.987L1091.66,615.033L1091.28,615.078L1090.89,615.122L1090.5,615.165L1090.11,615.207L1089.72,615.247L1089.34,615.287L1088.94,615.325L1088.56,615.363L1088.16,615.399L1087.77,615.434L1087.38,615.468L1086.99,615.501L1086.6,615.532L1086.21,615.563L1085.82,615.592L1085.42,615.621L1085.03,615.648L1084.64,615.674L1084.24,615.699L1083.85,615.723L1083.45,615.745L1083.06,615.767L1082.66,615.787L1082.27,615.806L1081.87,615.824L1081.48,615.841L1081.08,615.857L1080.68,615.871L1080.29,615.885L1079.89,615.897L1079.49,615.908L1079.09,615.918L1078.7,615.927L1078.3,615.934L1077.9,615.941L1077.5,615.946L1077.1,615.95L1076.7,615.953L1076.3,615.955L1075.9,615.955L208.944,615.955L208.544,615.955L208.144,615.953L207.744,615.95L207.344,615.946L206.945,615.941L206.546,615.934L206.148,615.927L205.75,615.918L205.352,615.908L204.954,615.897L204.557,615.885L204.16,615.871L203.763,615.857L203.367,615.841L202.971,615.824L202.575,615.806L202.179,615.787L201.784,615.767L201.39,615.745L200.995,615.723L200.601,615.699L200.207,615.674L199.814,615.648L199.421,615.621L199.028,615.592L198.636,615.563L198.244,615.532L197.852,615.501L197.461,615.468L197.07,615.434L196.679,615.399L196.289,615.363L195.899,615.325L195.509,615.287L195.12,615.247L194.731,615.207L194.342,615.165L193.954,615.122L193.567,615.078L193.179,615.033L192.792,614.987L192.405,614.939L192.019,614.891L191.633,614.842L191.248,614.791L190.863,614.739L190.478,614.686L190.093,614.632L189.709,614.577L189.326,614.521L188.943,614.464L188.56,614.406L188.177,614.347L187.795,614.286L187.414,614.225L187.032,614.162L186.652,614.098L186.271,614.034L185.891,613.968L185.511,613.901L185.132,613.833L184.753,613.764L184.375,613.694L183.997,613.623L183.619,613.551L183.242,613.477L182.866,613.403L182.489,613.327L182.113,613.251L181.738,613.174L181.363,613.095L180.988,613.015L180.614,612.935L180.24,612.853L179.867,612.77L179.494,612.686L179.122,612.601L178.75,612.516L178.378,612.429L178.007,612.341L177.636,612.252L177.266,612.162L176.897,612.071L176.527,611.978L176.158,611.885L175.79,611.791L175.422,611.696L175.055,611.6L174.688,611.503L174.321,611.404L173.955,611.305L173.589,611.205L173.224,611.104L172.86,611.001L172.495,610.898L172.132,610.794L171.768,610.688L171.406,610.582L171.043,610.475L170.682,610.366L170.32,610.257L169.959,610.147L169.599,610.035L169.239,609.923L168.88,609.81L168.521,609.695L168.163,609.58L167.805,609.464L167.447,609.346L167.091,609.228L166.734,609.109L166.378,608.989L166.023,608.867L165.668,608.745L165.314,608.622L164.96,608.498L164.607,608.373L164.254,608.247L163.902,608.12L163.55,607.992L163.199,607.863L162.848,607.733L162.498,607.602L162.148,607.47L161.799,607.337L161.451,607.203L161.103,607.069L160.755,606.933L160.408,606.796L160.062,606.659L159.716,606.52L159.371,606.381L159.026,606.24L158.681,606.099L158.338,605.957L157.995,605.814L157.652,605.669L157.31,605.524L156.969,605.378L156.628,605.231L156.287,605.083L155.948,604.935L155.608,604.785L155.27,604.634L154.932,604.483L154.594,604.33L154.257,604.177L153.921,604.022L153.585,603.867L153.25,603.711L152.915,603.554L152.581,603.396L152.248,603.237L151.915,603.077L151.582,602.916L151.251,602.755L150.92,602.592L150.589,602.429L150.259,602.264L149.93,602.099L149.601,601.933L149.273,601.766L148.945,601.598L148.618,601.429L148.292,601.26L147.966,601.089L147.641,600.918L147.317,600.745L146.993,600.572L146.67,600.398L146.347,600.223L146.025,600.047L145.704,599.87L145.383,599.693L145.063,599.514L144.743,599.335L144.424,599.155L144.106,598.974L143.789,598.792L143.472,598.609L143.155,598.425L142.84,598.241L142.524,598.056L142.21,597.869L141.896,597.682L141.583,597.494L141.271,597.306L140.959,597.116L140.648,596.926L140.337,596.734L140.027,596.542L139.718,596.349L139.41,596.156L139.102,595.961L138.794,595.765L138.488,595.569L138.182,595.372L137.877,595.174L137.572,594.975L137.268,594.776L136.965,594.575L136.663,594.374L136.361,594.172L136.06,593.969L135.759,593.765L135.459,593.561L135.16,593.355L134.862,593.149L134.564,592.942L134.267,592.734L133.971,592.526L133.675,592.317L133.38,592.106L133.086,591.895L132.792,591.684L132.5,591.471L132.207,591.258L131.916,591.043L131.625,590.828L131.335,590.613L131.046,590.396L130.758,590.179L130.47,589.961L130.183,589.742L129.896,589.522L129.61,589.302L129.325,589.08L129.041,588.858L128.758,588.636L128.475,588.412L128.193,588.188L127.912,587.963L127.631,587.737L127.351,587.51L127.072,587.283L126.794,587.055L126.516,586.826L126.239,586.596L125.963,586.366L125.688,586.135L125.413,585.903L125.139,585.67L124.866,585.436L124.594,585.202L124.322,584.967L124.051,584.732L123.781,584.495L123.512,584.258L123.244,584.02L122.976,583.782L122.709,583.542L122.443,583.302L122.177,583.061L121.913,582.82L121.649,582.577L121.386,582.334L121.123,582.091L120.862,581.846L120.601,581.601L120.341,581.355L120.082,581.109L119.823,580.861L119.566,580.613L119.309,580.364L119.053,580.115L118.798,579.865L118.543,579.614L118.29,579.362L118.037,579.11L117.785,578.857L117.534,578.603L117.284,578.349L117.034,578.094L116.785,577.838L116.537,577.581L116.29,577.324L116.044,577.066L115.799,576.808L115.554,576.549L115.31,576.289L115.067,576.028L114.825,575.767L114.584,575.505L114.343,575.242L114.104,574.979L113.865,574.715L113.627,574.45L113.39,574.185L113.153,573.919L112.918,573.652L112.683,573.385L112.45,573.117L112.217,572.848L111.985,572.579L111.753,572.309L111.523,572.038L111.294,571.767L111.065,571.495L110.837,571.223L110.61,570.949L110.384,570.675L110.159,570.401L109.935,570.126L109.712,569.85L109.489,569.574L109.267,569.296L109.047,569.019L108.827,568.74L108.608,568.461L108.39,568.182L108.172,567.901L107.956,567.621L107.74,567.339L107.526,567.057L107.312,566.774L107.099,566.491L106.887,566.207L106.676,565.922L106.466,565.637L106.257,565.351L106.049,565.065L105.841,564.778L105.635,564.49L105.429,564.202L105.225,563.913L105.021,563.623L104.818,563.333L104.616,563.043L104.415,562.751L104.215,562.459L104.016,562.167L103.818,561.874L103.621,561.58L103.424,561.286L103.229,560.991L103.034,560.696L102.841,560.4L102.648,560.103L102.456,559.806L102.266,559.508L102.076,559.21L101.887,558.911L101.699,558.612L101.512,558.312L101.326,558.011L101.141,557.71L100.957,557.408L100.774,557.106L100.592,556.803L100.41,556.5L100.23,556.196L100.051,555.891L99.872,555.586L99.695,555.28L99.519,554.974L99.343,554.667L99.169,554.36L98.995,554.052L98.823,553.744L98.651,553.435L98.48,553.126L98.311,552.816L98.142,552.505L97.975,552.194L97.808,551.882L97.642,551.57L97.478,551.257L97.314,550.944L97.152,550.631L96.99,550.316L96.829,550.001L96.67,549.686L96.511,549.37L96.353,549.054L96.197,548.737L96.041,548.42L95.886,548.102L95.733,547.784L95.58,547.465L95.429,547.145L95.278,546.825L95.129,546.505L94.98,546.184L94.833,545.863L94.686,545.541L94.541,545.218L94.396,544.895L94.253,544.572L94.111,544.248L93.969,543.924L93.829,543.599L93.69,543.273L93.552,542.947L93.414,542.621L93.278,542.294L93.143,541.967L93.009,541.639L92.876,541.311L92.745,540.982L92.614,540.653L92.484,540.323L92.355,539.993L92.228,539.663L92.101,539.332L91.975,539L91.851,538.668L91.728,538.336L91.605,538.003L91.484,537.669L91.364,537.336L91.245,537.001L91.127,536.667L91.01,536.331L90.894,535.996L90.779,535.66L90.665,535.323L90.553,534.986L90.441,534.649L90.331,534.311L90.221,533.973L90.113,533.634L90.006,533.295L89.9,532.955L89.795,532.615L89.691,532.275L89.588,531.934L89.487,531.593L89.386,531.251L89.287,530.909L89.189,530.567L89.091,530.224L88.995,529.88L88.9,529.536L88.807,529.192L88.714,528.848L88.622,528.503L88.532,528.157L88.442,527.811L88.354,527.465L88.267,527.119L88.181,526.772L88.096,526.424L88.013,526.076L87.93,525.728L87.849,525.379L87.768,525.03L87.689,524.681L87.611,524.331L87.535,523.981L87.459,523.631L87.384,523.28L87.311,522.928L87.239,522.577L87.168,522.225L87.098,521.872L87.029,521.519L86.962,521.166L86.895,520.813L86.83,520.459L86.766,520.104L86.703,519.75L86.641,519.395L86.581,519.039L86.521,518.684L86.463,518.327L86.406,517.971L86.35,517.614L86.296,517.257L86.242,516.9L86.19,516.542L86.139,516.183L86.089,515.825L86.04,515.466L85.993,515.107L85.947,514.747L85.902,514.387L85.858,514.027L85.815,513.666L85.774,513.306L85.733,512.944L85.694,512.583L85.656,512.221L85.62,511.859L85.584,511.496L85.55,511.133L85.517,510.77L85.485,510.406L85.455,510.043L85.425,509.678L85.397,509.314L85.37,508.949L85.345,508.584L85.32,508.219L85.297,507.853L85.275,507.487L85.255,507.121L85.235,506.754L85.217,506.387L85.2,506.02L85.184,505.653L85.17,505.285L85.157,504.917L85.145,504.548L85.134,504.18L85.124,503.811L85.116,503.442L85.109,503.072L85.103,502.702L85.099,502.332L85.096,501.962L85.094,501.591L85.093,501.22L85.093,271.75L85.094,271.379L85.096,271.008L85.099,270.638L85.103,270.268L85.109,269.898L85.116,269.529L85.124,269.159L85.134,268.79L85.145,268.422L85.157,268.053L85.17,267.685L85.184,267.318L85.2,266.95L85.217,266.583L85.235,266.216L85.255,265.849L85.275,265.483L85.297,265.117L85.32,264.751L85.345,264.386L85.37,264.021L85.397,263.656L85.425,263.292L85.455,262.928L85.485,262.564L85.517,262.2L85.55,261.837L85.584,261.474L85.62,261.112L85.656,260.749L85.694,260.387L85.733,260.026L85.774,259.665L85.815,259.304L85.858,258.943L85.902,258.583L85.947,258.223L85.993,257.863L86.04,257.504L86.089,257.145L86.139,256.787L86.19,256.429L86.242,256.071L86.296,255.713L86.35,255.356L86.406,254.999L86.463,254.643L86.521,254.287L86.581,253.931L86.641,253.576L86.703,253.221L86.766,252.866L86.83,252.512L86.895,252.158L86.962,251.804L87.029,251.451L87.098,251.098L87.168,250.746L87.239,250.394L87.311,250.042L87.384,249.691L87.459,249.34L87.535,248.989L87.611,248.639L87.689,248.289L87.768,247.94L87.849,247.591L87.93,247.242L88.013,246.894L88.096,246.546L88.181,246.199L88.267,245.852L88.354,245.505L88.442,245.159L88.532,244.813L88.622,244.468L88.714,244.123L88.807,243.778L88.9,243.434L88.995,243.09L89.091,242.747L89.189,242.404L89.287,242.061L89.386,241.719L89.487,241.377L89.588,241.036L89.691,240.695L89.795,240.355L89.9,240.015L90.006,239.675L90.113,239.336L90.221,238.997L90.331,238.659L90.441,238.321L90.553,237.984L90.665,237.647L90.779,237.31L90.894,236.974L91.01,236.639L91.127,236.304L91.245,235.969L91.364,235.635L91.484,235.301L91.605,234.967L91.728,234.634L91.851,234.302L91.975,233.97L92.101,233.639L92.228,233.307L92.355,232.977L92.484,232.647L92.614,232.317L92.745,231.988L92.876,231.659L93.009,231.331L93.143,231.003L93.278,230.676L93.414,230.349L93.552,230.023L93.69,229.697L93.829,229.371L93.969,229.047L94.111,228.722L94.253,228.398L94.396,228.075L94.541,227.752L94.686,227.43L94.833,227.108L94.98,226.786L95.129,226.465L95.278,226.145L95.429,225.825L95.58,225.506L95.733,225.187L95.886,224.868L96.041,224.55L96.197,224.233L96.353,223.916L96.511,223.6L96.67,223.284L96.829,222.969L96.99,222.654L97.152,222.34L97.314,222.026L97.478,221.713L97.642,221.4L97.808,221.088L97.975,220.776L98.142,220.465L98.311,220.155L98.48,219.845L98.651,219.535L98.823,219.226L98.995,218.918L99.169,218.61L99.343,218.303L99.519,217.996L99.695,217.69L99.872,217.384L100.051,217.079L100.23,216.775L100.41,216.471L100.592,216.167L100.774,215.864L100.957,215.562L101.141,215.26L101.326,214.959L101.512,214.658L101.699,214.358L101.887,214.059L102.076,213.76L102.266,213.462L102.456,213.164L102.648,212.867L102.841,212.57L103.034,212.274L103.229,211.979L103.424,211.684L103.621,211.39L103.818,211.096L104.016,210.803L104.215,210.511L104.415,210.219L104.616,209.928L104.818,209.637L105.021,209.347L105.225,209.057L105.429,208.768L105.635,208.48L105.841,208.192L106.049,207.905L106.257,207.619L106.466,207.333L106.676,207.048L106.887,206.763L107.099,206.479L107.312,206.196L107.526,205.913L107.74,205.631L107.956,205.35L108.172,205.069L108.39,204.788L108.608,204.509L108.827,204.23L109.047,203.951L109.267,203.674L109.489,203.397L109.712,203.12L109.935,202.844L110.159,202.569L110.384,202.295L110.61,202.021L110.837,201.748L111.065,201.475L111.294,201.203L111.523,200.932L111.753,200.661L111.985,200.391L112.217,200.122L112.45,199.853L112.683,199.585L112.918,199.318L113.153,199.051L113.39,198.785L113.627,198.52L113.865,198.255L114.104,197.991L114.343,197.728L114.584,197.465L114.825,197.203L115.067,196.942L115.31,196.681L115.554,196.422L115.799,196.162L116.044,195.904L116.29,195.646L116.537,195.389L116.785,195.132L117.034,194.876L117.284,194.621L117.534,194.367L117.785,194.113L118.037,193.86L118.29,193.608L118.543,193.356L118.798,193.105L119.053,192.855L119.309,192.606L119.566,192.357L119.823,192.109L120.082,191.862L120.341,191.615L120.601,191.369L120.862,191.124L121.123,190.879L121.386,190.636L121.649,190.393L121.913,190.15L122.177,189.909L122.443,189.668L122.709,189.428L122.976,189.189L123.244,188.95L123.512,188.712L123.781,188.475L124.051,188.238L124.322,188.003L124.594,187.768L124.866,187.534L125.139,187.3L125.413,187.068L125.688,186.836L125.963,186.604L126.239,186.374L126.516,186.144L126.794,185.915L127.072,185.687L127.351,185.46L127.631,185.233L127.912,185.007L128.193,184.782L128.475,184.558L128.758,184.334L129.041,184.112L129.325,183.89L129.61,183.668L129.896,183.448L130.183,183.228L130.47,183.009L130.758,182.791L131.046,182.574L131.335,182.357L131.625,182.142L131.916,181.927L132.207,181.713L132.5,181.499L132.792,181.287L133.086,181.075L133.38,180.864L133.675,180.654L133.971,180.444L134.267,180.236L134.564,180.028L134.862,179.821L135.16,179.615L135.459,179.409L135.759,179.205L136.06,179.001L136.361,178.798L136.663,178.596L136.965,178.395L137.268,178.195L137.572,177.995L137.877,177.796L138.182,177.598L138.488,177.401L138.794,177.205L139.102,177.009L139.41,176.815L139.718,176.621L140.027,176.428L140.337,176.236L140.648,176.044L140.959,175.854L141.271,175.664L141.583,175.476L141.896,175.288L142.21,175.101L142.524,174.915L142.84,174.729L143.155,174.545L143.472,174.361L143.789,174.178L144.106,173.996L144.424,173.815L144.743,173.635L145.063,173.456L145.383,173.277L145.704,173.1L146.025,172.923L146.347,172.747L146.67,172.572L146.993,172.398L147.317,172.225L147.641,172.053L147.966,171.881L148.292,171.711L148.618,171.541L148.945,171.372L149.273,171.204L149.601,171.037L149.93,170.871L150.259,170.706L150.589,170.542L150.92,170.378L151.251,170.216L151.582,170.054L151.915,169.893L152.248,169.733L152.581,169.575L152.915,169.417L153.25,169.259L153.585,169.103L153.921,168.948L154.257,168.794L154.594,168.64L154.932,168.488L155.27,168.336L155.608,168.185L155.948,168.036L156.287,167.887L156.628,167.739L156.969,167.592L157.31,167.446L157.652,167.301L157.995,167.157L158.338,167.013L158.681,166.871L159.026,166.73L159.371,166.589L159.716,166.45L160.062,166.311L160.408,166.174L160.755,166.037L161.103,165.901L161.451,165.767L161.799,165.633L162.148,165.5L162.498,165.368L162.848,165.237L163.199,165.107L163.55,164.978L163.902,164.85L164.254,164.723L164.607,164.597L164.96,164.472L165.314,164.348L165.668,164.225L166.023,164.103L166.378,163.982L166.734,163.861L167.091,163.742L167.447,163.624L167.805,163.507L168.163,163.39L168.521,163.275L168.88,163.161L169.239,163.047L169.599,162.935L169.959,162.824L170.32,162.713L170.682,162.604L171.043,162.496L171.406,162.388L171.768,162.282L172.132,162.177L172.495,162.072L172.86,161.969L173.224,161.867L173.589,161.765L173.955,161.665L174.321,161.566L174.688,161.468L175.055,161.37L175.422,161.274L175.79,161.179L176.158,161.085L176.527,160.992L176.897,160.9L177.266,160.809L177.636,160.718L178.007,160.629L178.378,160.541L178.75,160.455L179.122,160.369L179.494,160.284L179.867,160.2L180.24,160.117L180.614,160.036L180.988,159.955L181.363,159.875L181.738,159.797L182.113,159.719L182.489,159.643L182.866,159.567L183.242,159.493L183.619,159.42L183.997,159.347L184.375,159.276L184.753,159.206L185.132,159.137L185.511,159.069L185.891,159.002L186.271,158.936L186.652,158.872L187.032,158.808L187.414,158.745L187.795,158.684L188.177,158.624L188.56,158.564L188.943,158.506L189.326,158.449L189.709,158.393L190.093,158.338L190.478,158.284L190.863,158.231L191.248,158.179L191.633,158.129L192.019,158.079L192.405,158.031L192.792,157.983L193.179,157.937L193.567,157.892L193.954,157.848L194.342,157.805L194.731,157.763L195.12,157.723L195.509,157.683L195.899,157.645L196.289,157.608L196.679,157.571L197.07,157.536L197.461,157.502L197.852,157.469L198.244,157.438L198.636,157.407L199.028,157.378L199.421,157.349L199.814,157.322L200.207,157.296L200.601,157.271L200.995,157.248L201.39,157.225L201.784,157.204L202.179,157.183L202.575,157.164L202.971,157.146L203.367,157.129L203.763,157.113L204.16,157.099L204.557,157.085L204.954,157.073L205.352,157.062L205.75,157.052L206.148,157.043L206.546,157.036L206.945,157.029L207.344,157.024L207.744,157.02L208.144,157.017L208.544,157.015L208.944,157.015L1075.9,157.015L1076.3,157.015ZM208.963,179.006L208.619,179.006L208.294,179.008L207.97,179.01L207.645,179.013L207.321,179.018L206.998,179.023L206.675,179.029L206.352,179.036L206.029,179.044L205.706,179.053L205.384,179.063L205.062,179.074L204.741,179.086L204.419,179.098L204.099,179.112L203.778,179.127L203.458,179.142L203.138,179.159L202.818,179.176L202.498,179.194L202.18,179.214L201.861,179.234L201.542,179.255L201.224,179.277L200.906,179.3L200.589,179.324L200.272,179.348L199.954,179.374L199.638,179.401L199.322,179.428L199.006,179.456L198.69,179.486L198.375,179.516L198.059,179.547L197.745,179.579L197.431,179.612L197.117,179.645L196.803,179.68L196.489,179.716L196.176,179.752L195.863,179.79L195.551,179.828L195.239,179.867L194.927,179.907L194.616,179.948L194.304,179.99L193.993,180.032L193.683,180.076L193.373,180.12L193.063,180.165L192.754,180.212L192.444,180.259L192.136,180.307L191.827,180.355L191.519,180.405L191.211,180.456L190.903,180.507L190.597,180.559L190.29,180.612L189.983,180.666L189.677,180.721L189.371,180.777L189.066,180.834L188.761,180.891L188.456,180.949L188.152,181.008L187.848,181.068L187.544,181.129L187.241,181.191L186.938,181.253L186.635,181.317L186.333,181.381L186.031,181.446L185.729,181.512L185.428,181.579L185.128,181.647L184.827,181.715L184.526,181.784L184.227,181.855L183.928,181.925L183.629,181.997L183.33,182.07L183.031,182.143L182.734,182.218L182.436,182.293L182.139,182.369L181.842,182.446L181.546,182.523L181.25,182.602L180.954,182.681L180.659,182.761L180.364,182.842L180.069,182.924L179.774,183.006L179.481,183.089L179.188,183.174L178.894,183.259L178.602,183.344L178.31,183.431L178.018,183.518L177.726,183.607L177.435,183.696L177.145,183.785L176.854,183.876L176.564,183.967L176.275,184.06L175.986,184.153L175.697,184.247L175.408,184.341L175.121,184.436L174.833,184.533L174.546,184.63L174.259,184.728L173.973,184.826L173.687,184.926L173.401,185.026L173.117,185.127L172.832,185.228L172.547,185.331L172.264,185.434L171.981,185.538L171.697,185.643L171.415,185.749L171.132,185.855L170.85,185.963L170.57,186.07L170.289,186.179L170.008,186.289L169.728,186.399L169.448,186.51L169.169,186.622L168.89,186.734L168.612,186.848L168.334,186.962L168.056,187.077L167.78,187.192L167.503,187.309L167.227,187.426L166.951,187.544L166.676,187.663L166.401,187.782L166.127,187.902L165.853,188.023L165.579,188.145L165.306,188.267L165.034,188.39L164.762,188.514L164.49,188.639L164.218,188.764L163.948,188.891L163.677,189.017L163.408,189.145L163.139,189.273L162.869,189.403L162.601,189.532L162.333,189.663L162.066,189.794L161.798,189.927L161.532,190.059L161.266,190.192L161,190.327L160.735,190.462L160.47,190.597L160.206,190.734L159.942,190.871L159.679,191.009L159.417,191.147L159.154,191.287L158.892,191.427L158.631,191.567L158.37,191.709L158.11,191.851L157.85,191.994L157.591,192.137L157.332,192.282L157.074,192.426L156.816,192.572L156.559,192.719L156.302,192.866L156.046,193.013L155.79,193.162L155.534,193.311L155.28,193.461L155.026,193.611L154.772,193.763L154.519,193.915L154.266,194.068L154.014,194.221L153.762,194.375L153.511,194.53L153.26,194.685L153.01,194.841L152.76,194.998L152.512,195.155L152.263,195.313L152.015,195.472L151.767,195.632L151.521,195.792L151.274,195.953L151.028,196.114L150.783,196.276L150.538,196.439L150.294,196.603L150.05,196.767L149.807,196.932L149.565,197.097L149.322,197.263L149.081,197.43L148.84,197.597L148.6,197.766L148.36,197.935L148.121,198.104L147.882,198.274L147.643,198.445L147.406,198.616L147.169,198.788L146.933,198.961L146.697,199.134L146.461,199.309L146.227,199.483L145.993,199.658L145.759,199.834L145.526,200.011L145.293,200.188L145.062,200.366L144.831,200.544L144.6,200.723L144.369,200.903L144.14,201.083L143.911,201.265L143.683,201.446L143.455,201.628L143.228,201.811L143.001,201.995L142.775,202.179L142.55,202.364L142.326,202.549L142.101,202.735L141.877,202.921L141.655,203.109L141.432,203.297L141.211,203.485L140.989,203.674L140.769,203.864L140.549,204.054L140.33,204.245L140.111,204.436L139.893,204.628L139.676,204.82L139.459,205.014L139.242,205.208L139.027,205.402L138.812,205.597L138.598,205.793L138.384,205.989L138.171,206.186L137.959,206.383L137.747,206.581L137.536,206.78L137.325,206.979L137.115,207.178L136.906,207.378L136.698,207.579L136.489,207.781L136.282,207.983L136.076,208.186L135.869,208.389L135.664,208.592L135.46,208.797L135.256,209.001L135.052,209.207L134.849,209.413L134.647,209.62L134.446,209.827L134.245,210.034L134.045,210.242L133.846,210.451L133.647,210.66L133.449,210.871L133.251,211.081L133.055,211.292L132.859,211.503L132.663,211.716L132.469,211.928L132.275,212.141L132.081,212.355L131.889,212.569L131.697,212.784L131.506,212.999L131.315,213.216L131.125,213.432L130.936,213.648L130.747,213.866L130.559,214.084L130.372,214.303L130.186,214.522L130,214.741L129.815,214.961L129.631,215.182L129.447,215.403L129.264,215.625L129.082,215.847L128.901,216.07L128.72,216.293L128.54,216.516L128.36,216.741L128.182,216.965L128.004,217.191L127.826,217.417L127.65,217.643L127.474,217.869L127.299,218.097L127.125,218.325L126.951,218.553L126.778,218.782L126.606,219.011L126.435,219.24L126.264,219.471L126.094,219.702L125.925,219.933L125.756,220.164L125.589,220.396L125.422,220.629L125.255,220.863L125.09,221.096L124.925,221.33L124.761,221.564L124.598,221.8L124.435,222.035L124.273,222.271L124.113,222.508L123.952,222.745L123.792,222.982L123.634,223.22L123.476,223.458L123.319,223.697L123.162,223.937L123.006,224.176L122.851,224.417L122.697,224.657L122.544,224.898L122.391,225.14L122.239,225.382L122.088,225.625L121.938,225.867L121.788,226.111L121.639,226.355L121.492,226.599L121.344,226.844L121.198,227.089L121.052,227.335L120.907,227.581L120.763,227.827L120.62,228.074L120.477,228.321L120.335,228.569L120.194,228.818L120.054,229.066L119.915,229.316L119.776,229.565L119.639,229.815L119.502,230.065L119.365,230.316L119.23,230.567L119.095,230.819L118.962,231.071L118.829,231.324L118.697,231.577L118.565,231.83L118.435,232.084L118.305,232.338L118.176,232.593L118.048,232.847L117.921,233.103L117.794,233.359L117.669,233.615L117.544,233.872L117.42,234.129L117.297,234.386L117.174,234.644L117.053,234.902L116.932,235.161L116.812,235.42L116.693,235.679L116.575,235.939L116.457,236.2L116.341,236.46L116.225,236.721L116.11,236.983L115.996,237.245L115.883,237.506L115.771,237.769L115.659,238.032L115.549,238.296L115.439,238.559L115.33,238.823L115.222,239.088L115.114,239.353L115.008,239.618L114.902,239.884L114.798,240.149L114.694,240.416L114.591,240.682L114.489,240.95L114.387,241.217L114.287,241.485L114.187,241.753L114.089,242.022L113.991,242.291L113.894,242.56L113.798,242.83L113.703,243.1L113.608,243.37L113.515,243.641L113.422,243.912L113.331,244.183L113.24,244.455L113.15,244.728L113.061,245L112.972,245.273L112.885,245.546L112.799,245.82L112.713,246.094L112.628,246.368L112.545,246.642L112.462,246.918L112.38,247.193L112.299,247.468L112.218,247.745L112.139,248.021L112.061,248.298L111.983,248.575L111.907,248.852L111.831,249.13L111.756,249.408L111.682,249.686L111.609,249.965L111.537,250.244L111.466,250.523L111.396,250.803L111.326,251.083L111.258,251.363L111.19,251.644L111.124,251.925L111.058,252.206L110.993,252.488L110.93,252.77L110.867,253.052L110.805,253.335L110.744,253.618L110.683,253.901L110.624,254.184L110.566,254.468L110.508,254.753L110.452,255.037L110.397,255.322L110.342,255.607L110.288,255.893L110.236,256.179L110.184,256.465L110.133,256.751L110.083,257.038L110.035,257.325L109.987,257.612L109.94,257.9L109.894,258.188L109.848,258.476L109.804,258.765L109.761,259.053L109.719,259.343L109.678,259.632L109.637,259.922L109.598,260.212L109.56,260.502L109.522,260.793L109.486,261.084L109.45,261.375L109.416,261.667L109.382,261.958L109.35,262.251L109.318,262.543L109.287,262.836L109.258,263.129L109.229,263.422L109.201,263.716L109.175,264.01L109.149,264.304L109.124,264.598L109.101,264.893L109.078,265.188L109.056,265.483L109.035,265.779L109.015,266.075L108.997,266.371L108.979,266.667L108.962,266.964L108.946,267.261L108.932,267.558L108.918,267.856L108.905,268.154L108.893,268.452L108.883,268.751L108.873,269.049L108.864,269.348L108.857,269.647L108.85,269.947L108.844,270.247L108.84,270.547L108.836,270.847L108.833,271.148L108.832,271.449L108.831,271.767L108.831,501.203L108.832,501.522L108.833,501.822L108.836,502.123L108.84,502.423L108.844,502.723L108.85,503.023L108.857,503.323L108.864,503.622L108.873,503.921L108.883,504.22L108.893,504.518L108.905,504.816L108.918,505.114L108.932,505.412L108.946,505.709L108.962,506.006L108.979,506.303L108.997,506.599L109.015,506.895L109.035,507.191L109.056,507.487L109.078,507.782L109.101,508.077L109.124,508.372L109.149,508.666L109.175,508.961L109.201,509.255L109.229,509.548L109.258,509.841L109.287,510.134L109.318,510.427L109.35,510.72L109.382,511.012L109.416,511.304L109.45,511.595L109.486,511.886L109.522,512.177L109.56,512.468L109.598,512.758L109.637,513.049L109.678,513.338L109.719,513.628L109.761,513.917L109.804,514.206L109.848,514.494L109.894,514.782L109.94,515.07L109.987,515.358L110.035,515.646L110.083,515.932L110.133,516.219L110.184,516.506L110.236,516.791L110.288,517.077L110.342,517.363L110.397,517.648L110.452,517.933L110.508,518.217L110.566,518.502L110.624,518.786L110.683,519.069L110.743,519.352L110.805,519.635L110.867,519.918L110.93,520.2L110.993,520.483L111.058,520.764L111.124,521.045L111.19,521.326L111.258,521.607L111.326,521.887L111.396,522.168L111.466,522.447L111.537,522.726L111.609,523.005L111.682,523.284L111.756,523.563L111.831,523.841L111.907,524.118L111.983,524.396L112.061,524.673L112.139,524.949L112.218,525.226L112.299,525.502L112.38,525.777L112.462,526.053L112.545,526.328L112.628,526.602L112.713,526.877L112.799,527.15L112.885,527.424L112.972,527.697L113.061,527.97L113.15,528.243L113.24,528.515L113.331,528.787L113.422,529.058L113.515,529.329L113.608,529.6L113.703,529.87L113.798,530.141L113.894,530.41L113.991,530.679L114.089,530.948L114.188,531.217L114.287,531.485L114.387,531.752L114.489,532.02L114.591,532.288L114.694,532.554L114.798,532.821L114.902,533.087L115.008,533.352L115.115,533.618L115.222,533.883L115.33,534.147L115.439,534.41L115.549,534.675L115.659,534.938L115.771,535.201L115.883,535.463L115.996,535.726L116.11,535.988L116.225,536.249L116.341,536.51L116.457,536.77L116.575,537.031L116.693,537.291L116.812,537.55L116.932,537.809L117.053,538.068L117.174,538.326L117.297,538.584L117.42,538.842L117.544,539.098L117.668,539.355L117.794,539.611L117.921,539.868L118.048,540.122L118.176,540.377L118.305,540.632L118.435,540.887L118.566,541.141L118.697,541.393L118.829,541.647L118.961,541.898L119.095,542.151L119.23,542.403L119.365,542.654L119.501,542.904L119.639,543.155L119.777,543.405L119.915,543.655L120.055,543.904L120.195,544.153L120.335,544.401L120.477,544.649L120.62,544.896L120.763,545.144L120.907,545.389L121.052,545.635L121.198,545.881L121.344,546.126L121.492,546.371L121.64,546.616L121.788,546.859L121.937,547.102L122.088,547.346L122.239,547.588L122.391,547.83L122.544,548.071L122.697,548.312L122.851,548.554L123.006,548.794L123.163,549.034L123.319,549.274L123.476,549.512L123.634,549.75L123.793,549.988L123.952,550.226L124.112,550.462L124.273,550.699L124.435,550.935L124.598,551.17L124.761,551.406L124.925,551.64L125.09,551.874L125.255,552.108L125.422,552.342L125.589,552.573L125.756,552.805L125.925,553.038L126.094,553.269L126.264,553.5L126.435,553.73L126.606,553.959L126.778,554.189L126.951,554.417L127.125,554.645L127.299,554.874L127.475,555.101L127.65,555.328L127.826,555.553L128.004,555.78L128.182,556.005L128.36,556.229L128.54,556.453L128.719,556.677L128.901,556.901L129.082,557.124L129.264,557.345L129.447,557.567L129.631,557.788L129.815,558.009L130,558.229L130.186,558.448L130.373,558.668L130.559,558.886L130.747,559.104L130.936,559.322L131.125,559.538L131.315,559.754L131.506,559.971L131.697,560.186L131.889,560.401L132.081,560.614L132.275,560.829L132.469,561.042L132.663,561.254L132.859,561.466L133.055,561.678L133.252,561.89L133.449,562.099L133.647,562.31L133.846,562.519L134.044,562.727L134.245,562.936L134.446,563.143L134.648,563.351L134.85,563.557L135.052,563.763L135.256,563.969L135.46,564.174L135.664,564.377L135.87,564.582L136.076,564.785L136.282,564.987L136.489,565.188L136.697,565.39L136.906,565.592L137.115,565.791L137.325,565.992L137.536,566.191L137.747,566.39L137.958,566.587L138.171,566.784L138.384,566.981L138.597,567.177L138.813,567.374L139.027,567.568L139.242,567.762L139.459,567.956L139.675,568.149L139.893,568.342L140.111,568.534L140.33,568.726L140.549,568.916L140.768,569.106L140.989,569.296L141.211,569.486L141.433,569.674L141.654,569.861L141.877,570.049L142.101,570.235L142.325,570.421L142.551,570.607L142.775,570.791L143.001,570.975L143.228,571.159L143.455,571.341L143.683,571.524L143.911,571.706L144.14,571.887L144.37,572.067L144.601,572.247L144.83,572.425L145.062,572.604L145.293,572.782L145.526,572.959L145.76,573.136L145.993,573.312L146.227,573.487L146.461,573.661L146.696,573.835L146.934,574.01L147.169,574.182L147.405,574.353L147.644,574.526L147.882,574.696L148.12,574.866L148.36,575.035L148.601,575.205L148.84,575.373L149.081,575.54L149.323,575.707L149.564,575.873L149.806,576.038L150.051,576.204L150.294,576.368L150.539,576.531L150.782,576.693L151.028,576.856L151.274,577.018L151.521,577.179L151.768,577.339L152.014,577.497L152.262,577.656L152.512,577.815L152.76,577.972L153.011,578.13L153.26,578.285L153.511,578.441L153.762,578.595L154.013,578.749L154.265,578.902L154.518,579.055L154.772,579.207L155.026,579.359L155.28,579.509L155.534,579.659L155.79,579.808L156.046,579.957L156.302,580.104L156.559,580.252L156.816,580.398L157.073,580.543L157.333,580.689L157.591,580.833L157.85,580.976L158.11,581.119L158.37,581.261L158.632,581.403L158.894,581.544L159.154,581.683L159.417,581.823L159.678,581.961L159.942,582.099L160.206,582.236L160.47,582.372L160.735,582.508L161.001,582.644L161.266,582.778L161.532,582.911L161.798,583.043L162.066,583.176L162.333,583.307L162.6,583.437L162.87,583.568L163.139,583.697L163.408,583.825L163.678,583.953L163.947,584.079L164.218,584.206L164.49,584.331L164.761,584.456L165.034,584.58L165.307,584.704L165.579,584.826L165.852,584.947L166.126,585.068L166.4,585.188L166.676,585.308L166.951,585.426L167.227,585.544L167.503,585.661L167.78,585.778L168.057,585.894L168.333,586.008L168.611,586.122L168.89,586.236L169.17,586.349L169.449,586.461L169.728,586.571L170.008,586.681L170.287,586.791L170.57,586.9L170.852,587.008L171.132,587.115L171.414,587.221L171.698,587.327L171.981,587.432L172.263,587.536L172.547,587.639L172.833,587.742L173.118,587.844L173.402,587.945L173.686,588.044L173.973,588.144L174.26,588.243L174.546,588.34L174.832,588.437L175.121,588.534L175.408,588.629L175.696,588.723L175.986,588.818L176.275,588.911L176.565,589.003L176.855,589.094L177.145,589.185L177.434,589.274L177.725,589.363L178.019,589.452L178.31,589.539L178.601,589.626L178.894,589.712L179.188,589.797L179.481,589.881L179.774,589.964L180.07,590.047L180.364,590.128L180.658,590.209L180.955,590.29L181.251,590.369L181.545,590.447L181.841,590.524L182.14,590.602L182.436,590.677L182.734,590.752L183.032,590.827L183.329,590.9L183.629,590.973L183.928,591.045L184.227,591.116L184.526,591.186L184.827,591.255L185.127,591.324L185.428,591.391L185.73,591.458L186.032,591.524L186.331,591.589L186.636,591.653L186.938,591.717L187.24,591.779L187.543,591.841L187.848,591.902L188.152,591.962L188.457,592.021L188.761,592.079L189.065,592.136L189.371,592.193L189.678,592.249L189.984,592.304L190.29,592.358L190.596,592.411L190.903,592.463L191.212,592.515L191.52,592.565L191.826,592.615L192.135,592.663L192.444,592.711L192.754,592.759L193.064,592.805L193.372,592.85L193.683,592.894L193.994,592.938L194.304,592.981L194.615,593.022L194.927,593.063L195.241,593.104L195.55,593.142L195.862,593.181L196.177,593.218L196.49,593.255L196.803,593.29L197.117,593.325L197.43,593.358L197.744,593.391L198.059,593.423L198.375,593.454L198.691,593.485L199.006,593.514L199.323,593.542L199.638,593.57L199.954,593.596L200.272,593.622L200.589,593.647L200.906,593.67L201.223,593.693L201.541,593.715L201.862,593.736L202.181,593.757L202.498,593.776L202.818,593.794L203.14,593.811L203.458,593.828L203.777,593.843L204.099,593.858L204.42,593.872L204.741,593.884L205.061,593.896L205.384,593.907L205.706,593.917L206.03,593.926L206.352,593.934L206.675,593.941L206.998,593.947L207.32,593.953L207.646,593.957L207.97,593.96L208.293,593.963L208.618,593.964L208.963,593.965L1075.88,593.965L1076.22,593.964L1076.55,593.963L1076.87,593.96L1077.2,593.957L1077.52,593.953L1077.85,593.947L1078.17,593.941L1078.49,593.934L1078.81,593.926L1079.14,593.917L1079.46,593.907L1079.78,593.896L1080.1,593.884L1080.42,593.872L1080.75,593.858L1081.07,593.843L1081.38,593.828L1081.7,593.811L1082.03,593.794L1082.35,593.776L1082.66,593.757L1082.98,593.736L1083.3,593.715L1083.62,593.693L1083.94,593.67L1084.26,593.647L1084.57,593.622L1084.89,593.596L1085.21,593.57L1085.52,593.542L1085.84,593.514L1086.15,593.485L1086.47,593.454L1086.78,593.423L1087.1,593.391L1087.41,593.358L1087.73,593.325L1088.04,593.29L1088.35,593.254L1088.67,593.218L1088.98,593.181L1089.29,593.142L1089.6,593.104L1089.92,593.063L1090.23,593.022L1090.54,592.981L1090.85,592.938L1091.16,592.894L1091.47,592.85L1091.78,592.805L1092.09,592.758L1092.4,592.711L1092.71,592.664L1093.02,592.615L1093.32,592.565L1093.63,592.515L1093.94,592.463L1094.25,592.411L1094.55,592.358L1094.86,592.304L1095.17,592.249L1095.47,592.193L1095.78,592.137L1096.08,592.079L1096.39,592.021L1096.69,591.962L1097,591.902L1097.3,591.841L1097.6,591.779L1097.9,591.717L1098.21,591.653L1098.51,591.589L1098.81,591.524L1099.11,591.458L1099.42,591.391L1099.72,591.323L1100.02,591.255L1100.32,591.186L1100.62,591.116L1100.92,591.045L1101.21,590.973L1101.51,590.9L1101.81,590.827L1102.11,590.752L1102.41,590.677L1102.7,590.602L1103,590.524L1103.3,590.447L1103.59,590.369L1103.89,590.29L1104.19,590.209L1104.48,590.128L1104.77,590.047L1105.07,589.964L1105.36,589.881L1105.65,589.797L1105.95,589.711L1106.24,589.626L1106.53,589.539L1106.83,589.452L1107.12,589.363L1107.41,589.274L1107.7,589.185L1107.99,589.094L1108.28,589.003L1108.57,588.911L1108.86,588.818L1109.15,588.723L1109.44,588.629L1109.72,588.534L1110.01,588.437L1110.3,588.34L1110.58,588.243L1110.87,588.144L1111.16,588.044L1111.44,587.945L1111.73,587.844L1112.01,587.742L1112.3,587.639L1112.58,587.535L1112.86,587.432L1113.15,587.327L1113.43,587.221L1113.71,587.115L1113.99,587.008L1114.27,586.9L1114.56,586.791L1114.84,586.681L1115.12,586.571L1115.39,586.461L1115.67,586.349L1115.95,586.236L1116.23,586.122L1116.51,586.008L1116.79,585.893L1117.06,585.778L1117.34,585.661L1117.62,585.544L1117.89,585.427L1118.17,585.307L1118.44,585.187L1118.72,585.068L1118.99,584.947L1119.27,584.825L1119.54,584.703L1119.81,584.58L1120.08,584.456L1120.35,584.332L1120.63,584.206L1120.9,584.079L1121.16,583.954L1121.43,583.826L1121.71,583.696L1121.98,583.568L1122.24,583.437L1122.51,583.307L1122.78,583.177L1123.05,583.044L1123.31,582.911L1123.58,582.778L1123.84,582.644L1124.11,582.508L1124.37,582.373L1124.64,582.237L1124.9,582.098L1125.17,581.961L1125.43,581.824L1125.69,581.684L1125.95,581.544L1126.21,581.403L1126.47,581.261L1126.73,581.12L1126.99,580.977L1127.25,580.832L1127.51,580.688L1127.77,580.543L1128.03,580.398L1128.28,580.252L1128.54,580.104L1128.8,579.957L1129.05,579.809L1129.31,579.659L1129.57,579.509L1129.82,579.359L1130.07,579.207L1130.33,579.055L1130.58,578.903L1130.83,578.749L1131.08,578.595L1131.33,578.441L1131.58,578.286L1131.83,578.13L1132.08,577.972L1132.33,577.814L1132.58,577.656L1132.83,577.497L1133.07,577.34L1133.32,577.18L1133.57,577.018L1133.82,576.855L1134.06,576.693L1134.31,576.531L1134.55,576.368L1134.79,576.204L1135.04,576.037L1135.28,575.872L1135.52,575.708L1135.76,575.541L1136,575.372L1136.24,575.204L1136.49,575.035L1136.73,574.865L1136.96,574.697L1137.2,574.526L1137.44,574.353L1137.67,574.182L1137.91,574.009L1138.15,573.835L1138.38,573.662L1138.62,573.487L1138.85,573.312L1139.08,573.137L1139.32,572.959L1139.55,572.782L1139.78,572.604L1140.02,572.424L1140.24,572.247L1140.47,572.068L1140.7,571.887L1140.93,571.706L1141.16,571.523L1141.39,571.341L1141.62,571.159L1141.84,570.976L1142.07,570.792L1142.29,570.607L1142.52,570.421L1142.74,570.235L1142.97,570.047L1143.19,569.861L1143.41,569.675L1143.63,569.485L1143.85,569.297L1144.08,569.107L1144.3,568.915L1144.51,568.726L1144.73,568.534L1144.95,568.342L1145.17,568.15L1145.38,567.957L1145.6,567.763L1145.82,567.568L1146.03,567.373L1146.25,567.176L1146.46,566.981L1146.67,566.785L1146.89,566.587L1147.1,566.389L1147.31,566.192L1147.52,565.993L1147.73,565.791L1147.94,565.591L1148.15,565.39L1148.36,565.189L1148.56,564.988L1148.77,564.785L1148.97,564.582L1149.18,564.378L1149.38,564.173L1149.59,563.968L1149.79,563.762L1149.99,563.559L1150.2,563.351L1150.4,563.141L1150.6,562.936L1150.8,562.727L1151,562.519L1151.2,562.31L1151.39,562.099L1151.59,561.891L1151.79,561.679L1151.99,561.465L1152.18,561.254L1152.38,561.042L1152.57,560.828L1152.76,560.615L1152.95,560.401L1153.15,560.185L1153.34,559.972L1153.53,559.756L1153.72,559.537L1153.91,559.321L1154.1,559.104L1154.29,558.885L1154.47,558.668L1154.66,558.45L1154.84,558.228L1155.03,558.007L1155.21,557.789L1155.39,557.569L1155.58,557.343L1155.76,557.122L1155.94,556.902L1156.12,556.678L1156.31,556.453L1156.48,556.229L1156.66,556.007L1156.84,555.779L1157.02,555.553L1157.19,555.327L1157.37,555.101L1157.54,554.875L1157.72,554.647L1157.89,554.415L1158.07,554.187L1158.24,553.959L1158.41,553.731L1158.58,553.501L1158.75,553.269L1158.92,553.037L1159.09,552.804L1159.26,552.573L1159.42,552.343L1159.59,552.108L1159.76,551.873L1159.92,551.64L1160.08,551.407L1160.25,551.17L1160.41,550.933L1160.57,550.701L1160.73,550.462L1160.89,550.224L1161.05,549.99L1161.21,549.75L1161.37,549.512L1161.52,549.274L1161.68,549.032L1161.84,548.795L1161.99,548.555L1162.15,548.311L1162.3,548.07L1162.45,547.829L1162.61,547.587L1162.75,547.348L1162.9,547.103L1163.06,546.86L1163.2,546.616L1163.35,546.371L1163.5,546.126L1163.65,545.88L1163.79,545.636L1163.94,545.389L1164.08,545.142L1164.22,544.896L1164.37,544.648L1164.51,544.402L1164.65,544.155L1164.79,543.903L1164.93,543.654L1165.07,543.407L1165.2,543.154L1165.34,542.905L1165.48,542.653L1165.61,542.403L1165.75,542.151L1165.88,541.897L1166.02,541.646L1166.15,541.393L1166.28,541.141L1166.41,540.888L1166.54,540.633L1166.67,540.378L1166.8,540.124L1166.92,539.866L1167.05,539.61L1167.17,539.356L1167.3,539.1L1167.42,538.843L1167.55,538.581L1167.67,538.326L1167.79,538.071L1167.91,537.808L1168.03,537.548L1168.15,537.292L1168.27,537.03L1168.39,536.769L1168.5,536.511L1168.62,536.251L1168.73,535.988L1168.85,535.725L1168.96,535.464L1169.07,535.2L1169.18,534.939L1169.3,534.674L1169.41,534.408L1169.51,534.148L1169.62,533.885L1169.73,533.618L1169.84,533.35L1169.94,533.085L1170.05,532.824L1170.15,532.554L1170.25,532.285L1170.36,532.021L1170.46,531.754L1170.56,531.486L1170.66,531.219L1170.76,530.946L1170.85,530.677L1170.95,530.411L1171.05,530.141L1171.14,529.871L1171.24,529.6L1171.33,529.329L1171.42,529.06L1171.51,528.788L1171.6,528.515L1171.69,528.242L1171.78,527.968L1171.87,527.697L1171.96,527.426L1172.05,527.151L1172.13,526.876L1172.21,526.603L1172.3,526.327L1172.38,526.05L1172.46,525.779L1172.55,525.502L1172.63,525.223L1172.7,524.952L1172.78,524.673L1172.86,524.393L1172.94,524.12L1173.01,523.843L1173.09,523.562L1173.16,523.284L1173.23,523.006L1173.31,522.724L1173.38,522.445L1173.45,522.169L1173.52,521.888L1173.59,521.608L1173.65,521.328L1173.72,521.046L1173.79,520.764L1173.85,520.482L1173.91,520.199L1173.98,519.916L1174.04,519.636L1174.1,519.352L1174.16,519.068L1174.22,518.787L1174.28,518.502L1174.34,518.216L1174.39,517.934L1174.45,517.647L1174.5,517.36L1174.56,517.08L1174.61,516.792L1174.66,516.504L1174.71,516.219L1174.76,515.934L1174.81,515.648L1174.86,515.358L1174.9,515.068L1174.95,514.781L1175,514.497L1175.04,514.205L1175.08,513.914L1175.13,513.628L1175.17,513.339L1175.21,513.05L1175.25,512.76L1175.28,512.466L1175.32,512.175L1175.36,511.887L1175.39,511.596L1175.43,511.304L1175.46,511.012L1175.49,510.719L1175.53,510.429L1175.56,510.136L1175.59,509.842L1175.62,509.547L1175.64,509.252L1175.67,508.961L1175.69,508.669L1175.72,508.373L1175.74,508.077L1175.77,507.783L1175.79,507.486L1175.81,507.189L1175.83,506.898L1175.85,506.599L1175.87,506.301L1175.88,506.009L1175.9,505.709L1175.91,505.409L1175.93,505.116L1175.94,504.819L1175.95,504.518L1175.96,504.217L1175.97,503.918L1175.98,503.623L1175.99,503.324L1175.99,503.025L1176,502.721L1176,502.421L1176.01,502.124L1176.01,501.823L1176.01,501.522L1176.01,501.203L1176.01,271.767L1176.01,271.448L1176.01,271.147L1176.01,270.846L1176,270.549L1176,270.249L1175.99,269.945L1175.99,269.646L1175.98,269.347L1175.97,269.052L1175.96,268.754L1175.95,268.452L1175.94,268.151L1175.93,267.854L1175.91,267.561L1175.9,267.261L1175.88,266.962L1175.87,266.67L1175.85,266.371L1175.83,266.073L1175.81,265.782L1175.79,265.484L1175.77,265.187L1175.74,264.894L1175.72,264.598L1175.69,264.301L1175.67,264.009L1175.64,263.718L1175.62,263.423L1175.59,263.129L1175.56,262.835L1175.53,262.541L1175.49,262.251L1175.46,261.959L1175.43,261.666L1175.39,261.374L1175.36,261.083L1175.32,260.795L1175.28,260.504L1175.25,260.21L1175.21,259.921L1175.17,259.631L1175.13,259.342L1175.08,259.057L1175.04,258.765L1175,258.473L1174.95,258.189L1174.9,257.902L1174.86,257.612L1174.81,257.322L1174.76,257.036L1174.71,256.751L1174.66,256.466L1174.61,256.178L1174.56,255.89L1174.5,255.61L1174.45,255.323L1174.39,255.037L1174.34,254.754L1174.28,254.468L1174.22,254.183L1174.16,253.902L1174.1,253.618L1174.04,253.334L1173.98,253.054L1173.91,252.771L1173.85,252.488L1173.79,252.206L1173.72,251.924L1173.65,251.643L1173.59,251.362L1173.52,251.082L1173.45,250.802L1173.38,250.525L1173.31,250.246L1173.23,249.964L1173.16,249.686L1173.09,249.408L1173.01,249.127L1172.94,248.85L1172.86,248.577L1172.78,248.298L1172.7,248.019L1172.63,247.747L1172.55,247.468L1172.46,247.191L1172.38,246.92L1172.3,246.644L1172.21,246.367L1172.13,246.095L1172.05,245.819L1171.96,245.544L1171.87,245.273L1171.78,245.002L1171.69,244.729L1171.6,244.455L1171.51,244.182L1171.42,243.91L1171.33,243.642L1171.24,243.37L1171.14,243.1L1171.05,242.829L1170.95,242.559L1170.85,242.293L1170.76,242.024L1170.66,241.752L1170.56,241.484L1170.46,241.216L1170.36,240.949L1170.25,240.686L1170.15,240.416L1170.05,240.147L1169.94,239.885L1169.84,239.62L1169.73,239.352L1169.62,239.085L1169.51,238.822L1169.41,238.562L1169.3,238.297L1169.18,238.031L1169.07,237.77L1168.96,237.506L1168.85,237.245L1168.73,236.982L1168.62,236.719L1168.5,236.46L1168.39,236.201L1168.27,235.94L1168.15,235.679L1168.03,235.422L1167.91,235.162L1167.79,234.9L1167.67,234.644L1167.55,234.389L1167.42,234.128L1167.3,233.871L1167.17,233.614L1167.05,233.36L1166.92,233.105L1166.8,232.846L1166.67,232.591L1166.54,232.337L1166.41,232.083L1166.28,231.83L1166.15,231.577L1166.02,231.325L1165.88,231.073L1165.75,230.819L1165.61,230.568L1165.48,230.318L1165.34,230.065L1165.2,229.816L1165.07,229.564L1164.93,229.316L1164.79,229.068L1164.65,228.815L1164.51,228.568L1164.37,228.322L1164.22,228.074L1164.08,227.828L1163.94,227.581L1163.79,227.334L1163.65,227.091L1163.5,226.845L1163.35,226.599L1163.2,226.354L1163.06,226.11L1162.9,225.866L1162.76,225.623L1162.61,225.383L1162.45,225.141L1162.3,224.899L1162.15,224.658L1161.99,224.415L1161.84,224.175L1161.68,223.938L1161.53,223.697L1161.37,223.458L1161.21,223.22L1161.05,222.981L1160.89,222.747L1160.73,222.508L1160.57,222.27L1160.41,222.037L1160.25,221.8L1160.08,221.563L1159.92,221.33L1159.76,221.097L1159.59,220.862L1159.42,220.628L1159.26,220.396L1159.09,220.166L1158.92,219.933L1158.75,219.701L1158.58,219.47L1158.41,219.239L1158.24,219.011L1158.07,218.784L1157.89,218.555L1157.72,218.323L1157.54,218.095L1157.37,217.87L1157.19,217.643L1157.02,217.417L1156.84,217.191L1156.66,216.963L1156.48,216.741L1156.31,216.517L1156.12,216.291L1155.94,216.069L1155.76,215.849L1155.58,215.627L1155.39,215.401L1155.21,215.181L1155.03,214.963L1154.84,214.742L1154.66,214.52L1154.47,214.302L1154.29,214.085L1154.1,213.865L1153.91,213.649L1153.72,213.433L1153.53,213.214L1153.34,212.999L1153.15,212.785L1152.95,212.569L1152.76,212.354L1152.57,212.142L1152.38,211.928L1152.18,211.715L1151.99,211.505L1151.79,211.291L1151.59,211.079L1151.39,210.871L1151.2,210.661L1151,210.451L1150.8,210.242L1150.6,210.034L1150.4,209.829L1150.2,209.62L1149.99,209.411L1149.79,209.207L1149.59,209.002L1149.38,208.798L1149.18,208.592L1148.97,208.389L1148.77,208.186L1148.56,207.982L1148.35,207.781L1148.15,207.58L1147.94,207.38L1147.73,207.178L1147.52,206.978L1147.31,206.779L1147.1,206.582L1146.88,206.383L1146.67,206.185L1146.46,205.989L1146.25,205.794L1146.03,205.598L1145.82,205.402L1145.6,205.207L1145.38,205.013L1145.17,204.819L1144.95,204.628L1144.73,204.436L1144.51,204.244L1144.3,204.055L1144.07,203.863L1143.85,203.673L1143.63,203.486L1143.41,203.296L1143.19,203.108L1142.97,202.923L1142.74,202.735L1142.52,202.549L1142.29,202.364L1142.07,202.178L1141.84,201.994L1141.62,201.811L1141.39,201.629L1141.16,201.447L1140.93,201.264L1140.7,201.082L1140.47,200.903L1140.24,200.724L1140.01,200.545L1139.78,200.366L1139.55,200.188L1139.32,200.011L1139.08,199.834L1138.85,199.659L1138.62,199.483L1138.38,199.308L1138.15,199.135L1137.91,198.961L1137.67,198.788L1137.44,198.616L1137.2,198.445L1136.96,198.274L1136.72,198.104L1136.49,197.935L1136.25,197.766L1136,197.598L1135.76,197.429L1135.52,197.263L1135.28,197.098L1135.04,196.932L1134.79,196.766L1134.55,196.602L1134.31,196.439L1134.06,196.277L1133.82,196.115L1133.57,195.952L1133.32,195.791L1133.08,195.631L1132.83,195.472L1132.58,195.314L1132.33,195.156L1132.08,194.998L1131.83,194.841L1131.58,194.684L1131.33,194.53L1131.08,194.375L1130.83,194.221L1130.58,194.067L1130.33,193.915L1130.07,193.763L1129.82,193.611L1129.57,193.462L1129.31,193.311L1129.05,193.161L1128.8,193.014L1128.54,192.866L1128.29,192.719L1128.03,192.572L1127.77,192.426L1127.51,192.282L1127.25,192.138L1126.99,191.993L1126.73,191.85L1126.47,191.709L1126.21,191.568L1125.95,191.427L1125.69,191.287L1125.43,191.146L1125.16,191.009L1124.9,190.872L1124.64,190.733L1124.37,190.597L1124.11,190.463L1123.84,190.327L1123.58,190.192L1123.31,190.059L1123.05,189.926L1122.78,189.794L1122.51,189.663L1122.24,189.532L1121.98,189.403L1121.71,189.274L1121.43,189.145L1121.16,189.017L1120.9,188.891L1120.63,188.764L1120.35,188.639L1120.08,188.514L1119.81,188.39L1119.54,188.268L1119.27,188.145L1118.99,188.023L1118.72,187.902L1118.44,187.782L1118.17,187.663L1117.89,187.544L1117.62,187.426L1117.34,187.309L1117.06,187.192L1116.79,187.077L1116.51,186.962L1116.23,186.848L1115.95,186.735L1115.67,186.622L1115.39,186.51L1115.12,186.399L1114.84,186.289L1114.55,186.179L1114.27,186.07L1113.99,185.963L1113.71,185.855L1113.43,185.749L1113.15,185.643L1112.86,185.538L1112.58,185.435L1112.3,185.331L1112.01,185.228L1111.73,185.126L1111.44,185.026L1111.16,184.926L1110.87,184.826L1110.58,184.727L1110.3,184.63L1110.01,184.533L1109.72,184.436L1109.44,184.342L1109.15,184.247L1108.86,184.152L1108.57,184.06L1108.28,183.968L1107.99,183.876L1107.7,183.785L1107.41,183.696L1107.12,183.607L1106.83,183.518L1106.53,183.431L1106.24,183.344L1105.95,183.259L1105.66,183.173L1105.36,183.09L1105.07,183.006L1104.77,182.923L1104.48,182.842L1104.19,182.761L1103.89,182.681L1103.59,182.601L1103.3,182.523L1103,182.446L1102.7,182.369L1102.41,182.293L1102.11,182.218L1101.81,182.143L1101.51,182.07L1101.21,181.997L1100.92,181.926L1100.62,181.855L1100.32,181.784L1100.02,181.715L1099.72,181.647L1099.42,181.579L1099.11,181.512L1098.81,181.446L1098.51,181.381L1098.21,181.317L1097.9,181.253L1097.6,181.191L1097.3,181.129L1097,181.068L1096.69,181.008L1096.39,180.949L1096.08,180.891L1095.78,180.833L1095.47,180.777L1095.17,180.721L1094.86,180.666L1094.55,180.612L1094.25,180.559L1093.94,180.507L1093.63,180.456L1093.33,180.405L1093.02,180.355L1092.71,180.306L1092.4,180.259L1092.09,180.212L1091.78,180.165L1091.47,180.12L1091.16,180.076L1090.85,180.032L1090.54,179.99L1090.23,179.948L1089.92,179.907L1089.61,179.867L1089.29,179.828L1088.98,179.79L1088.67,179.752L1088.35,179.716L1088.04,179.68L1087.73,179.645L1087.41,179.612L1087.1,179.579L1086.78,179.547L1086.47,179.516L1086.15,179.486L1085.84,179.456L1085.52,179.428L1085.21,179.401L1084.89,179.374L1084.57,179.348L1084.26,179.324L1083.94,179.3L1083.62,179.277L1083.3,179.255L1082.98,179.234L1082.66,179.214L1082.35,179.194L1082.03,179.176L1081.7,179.159L1081.39,179.142L1081.07,179.127L1080.75,179.112L1080.42,179.098L1080.1,179.086L1079.78,179.074L1079.46,179.063L1079.14,179.053L1078.82,179.044L1078.49,179.036L1078.17,179.029L1077.85,179.023L1077.52,179.018L1077.2,179.013L1076.87,179.01L1076.55,179.008L1076.22,179.006L1075.88,179.006L208.963,179.006Z" style="fill:white;"/>
    </g>
</svg>
